<mxfile host="app.diagrams.net" modified="2024-01-08T17:35:08.954Z" agent="Mozilla/5.0 (Macintosh; Intel Mac OS X 10_15_7) AppleWebKit/537.36 (KHTML, like Gecko) Chrome/120.0.0.0 Safari/537.36" etag="z-iA06qFMyhafsf8177w" version="22.1.16" type="google">
  <diagram id="f106602c-feb2-e66a-4537-3a34d633f6aa" name="Page-1">
    <mxGraphModel grid="1" page="1" gridSize="10" guides="1" tooltips="1" connect="1" arrows="1" fold="1" pageScale="1" pageWidth="1169" pageHeight="827" background="none" math="0" shadow="0">
      <root>
        <mxCell id="0" />
        <mxCell id="1" parent="0" />
        <mxCell id="Lif8JBEafslfNm7ranTe-1" value="&lt;b&gt;Google &lt;/b&gt;Cloud Platform" style="fillColor=#F6F6F6;strokeColor=none;shadow=0;gradientColor=none;fontSize=14;align=left;spacing=10;fontColor=#717171;9E9E9E;verticalAlign=top;spacingTop=-4;fontStyle=0;spacingLeft=40;html=1;" vertex="1" parent="1">
          <mxGeometry x="360" y="200" width="780" height="596" as="geometry" />
        </mxCell>
        <mxCell id="vWphqgwW-3ebV2k3nfvZ-59" style="edgeStyle=elbowEdgeStyle;shape=connector;rounded=0;orthogonalLoop=1;jettySize=auto;elbow=vertical;html=1;exitX=0.75;exitY=1;exitDx=0;exitDy=0;dashed=0;labelBackgroundColor=none;strokeColor=#4284F3;strokeWidth=2;align=left;verticalAlign=middle;fontFamily=Helvetica;fontSize=12;fontColor=#000000;startFill=1;endArrow=blockThin;endFill=1;startSize=4;endSize=4;" edge="1" parent="Lif8JBEafslfNm7ranTe-1" source="vWphqgwW-3ebV2k3nfvZ-30" target="vWphqgwW-3ebV2k3nfvZ-50">
          <mxGeometry relative="1" as="geometry" />
        </mxCell>
        <mxCell id="vWphqgwW-3ebV2k3nfvZ-30" value="" style="rounded=0;whiteSpace=wrap;html=1;fillColor=none;strokeColor=#9999FF;" vertex="1" parent="Lif8JBEafslfNm7ranTe-1">
          <mxGeometry x="20" y="40" width="740" height="400" as="geometry" />
        </mxCell>
        <mxCell id="Lif8JBEafslfNm7ranTe-2" value="" style="shape=mxgraph.gcp2.google_cloud_platform;fillColor=#F6F6F6;strokeColor=none;shadow=0;gradientColor=none;" vertex="1" parent="Lif8JBEafslfNm7ranTe-1">
          <mxGeometry width="23" height="20" relative="1" as="geometry">
            <mxPoint x="20" y="10" as="offset" />
          </mxGeometry>
        </mxCell>
        <mxCell id="vWphqgwW-3ebV2k3nfvZ-46" style="edgeStyle=elbowEdgeStyle;shape=connector;rounded=0;orthogonalLoop=1;jettySize=auto;html=1;exitX=0;exitY=0.5;exitDx=0;exitDy=0;entryX=1;entryY=0.5;entryDx=0;entryDy=0;dashed=0;labelBackgroundColor=none;strokeColor=#4284F3;strokeWidth=2;align=left;verticalAlign=middle;fontFamily=Helvetica;fontSize=12;fontColor=#000000;startFill=1;endArrow=blockThin;endFill=1;startSize=4;endSize=4;startArrow=blockThin;" edge="1" parent="Lif8JBEafslfNm7ranTe-1" source="vWphqgwW-3ebV2k3nfvZ-2" target="vWphqgwW-3ebV2k3nfvZ-22">
          <mxGeometry relative="1" as="geometry" />
        </mxCell>
        <mxCell id="vWphqgwW-3ebV2k3nfvZ-2" value="" style="strokeColor=#dddddd;shadow=1;strokeWidth=1;rounded=1;absoluteArcSize=1;arcSize=2;" vertex="1" parent="Lif8JBEafslfNm7ranTe-1">
          <mxGeometry x="529.9952784856206" y="360" width="171.21951219512192" height="60" as="geometry" />
        </mxCell>
        <mxCell id="vWphqgwW-3ebV2k3nfvZ-3" value="&lt;font color=&quot;#000000&quot;&gt;Services&lt;br&gt;&lt;/font&gt;Kubernetes Engine" style="editableCssRules=.*;html=1;fontColor=#999999;shape=image;verticalLabelPosition=middle;verticalAlign=middle;labelPosition=right;align=left;spacingLeft=20;part=1;points=[];imageAspect=0;image=data:image/svg+xml,PHN2ZyB4bWxucz0iaHR0cDovL3d3dy53My5vcmcvMjAwMC9zdmciIHhtbG5zOnY9Imh0dHBzOi8vdmVjdGEuaW8vbmFubyIgd2lkdGg9IjMyOS45MjU5OTcyMzE3OTM4IiBoZWlnaHQ9IjM3OC4yODQ5OTAzMTEyNzg4IiB2aWV3Qm94PSIwIDAgODcuMjkyOTk5MjY3NTc4MTIgMTAwLjA4Nzk5NzQzNjUyMzQ0Ij4mI3hhOzxzdHlsZSB0eXBlPSJ0ZXh0L2NzcyI+JiN4YTsJLnN0MHtmaWxsOiNhZWNiZmE7fSYjeGE7CS5zdDF7ZmlsbDojNjY5ZGY2O30mI3hhOwkuc3Qye2ZpbGw6IzQyODVmNDt9JiN4YTs8L3N0eWxlPiYjeGE7CTxwYXRoIGNsYXNzPSJzdDAiIGQ9Ik00My43NTEgMEwwIDI1LjQ2NXYyLjU4OCA0Ni45Mmw0My43NTIgMjUuMTE1IDQzLjU0MS0yNS4xMjFWMjUuNDczem0yLjQzOCAxMS44NTNsMzIuMTAzIDE4Ljc4MlY2OS43N0w0My43MzkgODkuNzA1IDkgNjkuNzYyVjMwLjY0MWwzMi4xOS0xOC43MzZ2MTQuMTU0TDI0LjUwMyAzNi4xNTNsMTkuMTcyIDExLjUwMiAxOC44ODYtMTEuNTU0LTE2LjM3Mi0xMC4wMjR6Ii8+JiN4YTsJPHBhdGggY2xhc3M9InN0MSIgZD0iTTIyLjAyNSA0MC40OTZsLjE2NiAxOS4xNDMtMTMuMjQ3IDcuMzN2Mi43NDJsMi42MzcgMS41MTQgMTIuNjQ4LTYuOTk5IDE2Ljk2MSAxMC42MDJWNTEuOTkzeiIvPiYjeGE7CTxwYXRoIGNsYXNzPSJzdDIiIGQ9Ik02NS4zNDQgNDAuMjZMNDYuMTg5IDUxLjk3OXYyMi44NDdsMTYuODk5LTEwLjU3NiAxMi41MzkgNi45NzQgMi42MDktMS41MDV2LTIuNzY1bC0xMi43ODQtNy4xMTJ6Ii8+JiN4YTs8L3N2Zz4=;" vertex="1" parent="vWphqgwW-3ebV2k3nfvZ-2">
          <mxGeometry width="26" height="30" relative="1" as="geometry">
            <mxPoint x="17" y="15" as="offset" />
          </mxGeometry>
        </mxCell>
        <mxCell id="vWphqgwW-3ebV2k3nfvZ-43" style="edgeStyle=elbowEdgeStyle;shape=connector;rounded=0;orthogonalLoop=1;jettySize=auto;html=1;exitX=0;exitY=0.5;exitDx=0;exitDy=0;dashed=0;labelBackgroundColor=none;strokeColor=#4284F3;strokeWidth=2;align=left;verticalAlign=middle;fontFamily=Helvetica;fontSize=12;fontColor=#000000;startFill=1;endArrow=blockThin;endFill=1;startSize=4;endSize=4;startArrow=blockThin;entryX=0.5;entryY=0;entryDx=0;entryDy=0;" edge="1" parent="Lif8JBEafslfNm7ranTe-1" target="vWphqgwW-3ebV2k3nfvZ-22">
          <mxGeometry relative="1" as="geometry">
            <mxPoint x="529.9991809246449" y="125" as="sourcePoint" />
            <mxPoint x="366" y="315" as="targetPoint" />
            <Array as="points">
              <mxPoint x="366" y="230" />
            </Array>
          </mxGeometry>
        </mxCell>
        <mxCell id="cEKSAHbCaNsN3OeEtTBm-7" value="" style="strokeColor=#dddddd;shadow=1;strokeWidth=1;rounded=1;absoluteArcSize=1;arcSize=2;" vertex="1" parent="Lif8JBEafslfNm7ranTe-1">
          <mxGeometry x="529.9991809246451" y="90" width="175.97560975609755" height="60" as="geometry" />
        </mxCell>
        <mxCell id="cEKSAHbCaNsN3OeEtTBm-8" value="&lt;font color=&quot;#000000&quot;&gt;Organizations&lt;/font&gt;&lt;br&gt;Kubernetes Engine" style="editableCssRules=.*;html=1;fontColor=#999999;shape=image;verticalLabelPosition=middle;verticalAlign=middle;labelPosition=right;align=left;spacingLeft=20;part=1;points=[];imageAspect=0;image=data:image/svg+xml,PHN2ZyB4bWxucz0iaHR0cDovL3d3dy53My5vcmcvMjAwMC9zdmciIHhtbG5zOnY9Imh0dHBzOi8vdmVjdGEuaW8vbmFubyIgd2lkdGg9IjMyOS45MjU5OTcyMzE3OTM4IiBoZWlnaHQ9IjM3OC4yODQ5OTAzMTEyNzg4IiB2aWV3Qm94PSIwIDAgODcuMjkyOTk5MjY3NTc4MTIgMTAwLjA4Nzk5NzQzNjUyMzQ0Ij4mI3hhOzxzdHlsZSB0eXBlPSJ0ZXh0L2NzcyI+JiN4YTsJLnN0MHtmaWxsOiNhZWNiZmE7fSYjeGE7CS5zdDF7ZmlsbDojNjY5ZGY2O30mI3hhOwkuc3Qye2ZpbGw6IzQyODVmNDt9JiN4YTs8L3N0eWxlPiYjeGE7CTxwYXRoIGNsYXNzPSJzdDAiIGQ9Ik00My43NTEgMEwwIDI1LjQ2NXYyLjU4OCA0Ni45Mmw0My43NTIgMjUuMTE1IDQzLjU0MS0yNS4xMjFWMjUuNDczem0yLjQzOCAxMS44NTNsMzIuMTAzIDE4Ljc4MlY2OS43N0w0My43MzkgODkuNzA1IDkgNjkuNzYyVjMwLjY0MWwzMi4xOS0xOC43MzZ2MTQuMTU0TDI0LjUwMyAzNi4xNTNsMTkuMTcyIDExLjUwMiAxOC44ODYtMTEuNTU0LTE2LjM3Mi0xMC4wMjR6Ii8+JiN4YTsJPHBhdGggY2xhc3M9InN0MSIgZD0iTTIyLjAyNSA0MC40OTZsLjE2NiAxOS4xNDMtMTMuMjQ3IDcuMzN2Mi43NDJsMi42MzcgMS41MTQgMTIuNjQ4LTYuOTk5IDE2Ljk2MSAxMC42MDJWNTEuOTkzeiIvPiYjeGE7CTxwYXRoIGNsYXNzPSJzdDIiIGQ9Ik02NS4zNDQgNDAuMjZMNDYuMTg5IDUxLjk3OXYyMi44NDdsMTYuODk5LTEwLjU3NiAxMi41MzkgNi45NzQgMi42MDktMS41MDV2LTIuNzY1bC0xMi43ODQtNy4xMTJ6Ii8+JiN4YTs8L3N2Zz4=;" vertex="1" parent="cEKSAHbCaNsN3OeEtTBm-7">
          <mxGeometry width="26" height="30" relative="1" as="geometry">
            <mxPoint x="17" y="15" as="offset" />
          </mxGeometry>
        </mxCell>
        <mxCell id="vWphqgwW-3ebV2k3nfvZ-41" style="edgeStyle=elbowEdgeStyle;shape=connector;rounded=0;orthogonalLoop=1;jettySize=auto;elbow=vertical;html=1;exitX=0.5;exitY=1;exitDx=0;exitDy=0;entryX=0;entryY=0.5;entryDx=0;entryDy=0;dashed=0;labelBackgroundColor=none;strokeColor=#4284F3;strokeWidth=2;align=left;verticalAlign=middle;fontFamily=Helvetica;fontSize=12;fontColor=#000000;startFill=1;endArrow=blockThin;endFill=1;startSize=4;endSize=4;startArrow=classic;" edge="1" parent="Lif8JBEafslfNm7ranTe-1" source="vWphqgwW-3ebV2k3nfvZ-10" target="vWphqgwW-3ebV2k3nfvZ-22">
          <mxGeometry relative="1" as="geometry">
            <Array as="points">
              <mxPoint x="220" y="370" />
            </Array>
          </mxGeometry>
        </mxCell>
        <mxCell id="vWphqgwW-3ebV2k3nfvZ-10" value="" style="strokeColor=#dddddd;shadow=1;strokeWidth=1;rounded=1;absoluteArcSize=1;arcSize=2;" vertex="1" parent="Lif8JBEafslfNm7ranTe-1">
          <mxGeometry x="46.56716417910447" y="190" width="209.55223880597015" height="60" as="geometry" />
        </mxCell>
        <mxCell id="vWphqgwW-3ebV2k3nfvZ-11" value="&lt;font color=&quot;#000000&quot;&gt;Gateway&lt;/font&gt;&lt;br&gt;Kubernetes Engine" style="editableCssRules=.*;html=1;fontColor=#999999;shape=image;verticalLabelPosition=middle;verticalAlign=middle;labelPosition=right;align=left;spacingLeft=20;part=1;points=[];imageAspect=0;image=data:image/svg+xml,PHN2ZyB4bWxucz0iaHR0cDovL3d3dy53My5vcmcvMjAwMC9zdmciIHhtbG5zOnY9Imh0dHBzOi8vdmVjdGEuaW8vbmFubyIgd2lkdGg9IjMyOS45MjU5OTcyMzE3OTM4IiBoZWlnaHQ9IjM3OC4yODQ5OTAzMTEyNzg4IiB2aWV3Qm94PSIwIDAgODcuMjkyOTk5MjY3NTc4MTIgMTAwLjA4Nzk5NzQzNjUyMzQ0Ij4mI3hhOzxzdHlsZSB0eXBlPSJ0ZXh0L2NzcyI+JiN4YTsJLnN0MHtmaWxsOiNhZWNiZmE7fSYjeGE7CS5zdDF7ZmlsbDojNjY5ZGY2O30mI3hhOwkuc3Qye2ZpbGw6IzQyODVmNDt9JiN4YTs8L3N0eWxlPiYjeGE7CTxwYXRoIGNsYXNzPSJzdDAiIGQ9Ik00My43NTEgMEwwIDI1LjQ2NXYyLjU4OCA0Ni45Mmw0My43NTIgMjUuMTE1IDQzLjU0MS0yNS4xMjFWMjUuNDczem0yLjQzOCAxMS44NTNsMzIuMTAzIDE4Ljc4MlY2OS43N0w0My43MzkgODkuNzA1IDkgNjkuNzYyVjMwLjY0MWwzMi4xOS0xOC43MzZ2MTQuMTU0TDI0LjUwMyAzNi4xNTNsMTkuMTcyIDExLjUwMiAxOC44ODYtMTEuNTU0LTE2LjM3Mi0xMC4wMjR6Ii8+JiN4YTsJPHBhdGggY2xhc3M9InN0MSIgZD0iTTIyLjAyNSA0MC40OTZsLjE2NiAxOS4xNDMtMTMuMjQ3IDcuMzN2Mi43NDJsMi42MzcgMS41MTQgMTIuNjQ4LTYuOTk5IDE2Ljk2MSAxMC42MDJWNTEuOTkzeiIvPiYjeGE7CTxwYXRoIGNsYXNzPSJzdDIiIGQ9Ik02NS4zNDQgNDAuMjZMNDYuMTg5IDUxLjk3OXYyMi44NDdsMTYuODk5LTEwLjU3NiAxMi41MzkgNi45NzQgMi42MDktMS41MDV2LTIuNzY1bC0xMi43ODQtNy4xMTJ6Ii8+JiN4YTs8L3N2Zz4=;" vertex="1" parent="vWphqgwW-3ebV2k3nfvZ-10">
          <mxGeometry width="26" height="30" relative="1" as="geometry">
            <mxPoint x="17" y="15" as="offset" />
          </mxGeometry>
        </mxCell>
        <mxCell id="vWphqgwW-3ebV2k3nfvZ-18" value="" style="strokeColor=#dddddd;shadow=1;strokeWidth=1;rounded=1;absoluteArcSize=1;arcSize=2;" vertex="1" parent="Lif8JBEafslfNm7ranTe-1">
          <mxGeometry x="529.9952784856206" y="180" width="171.21951219512192" height="60" as="geometry" />
        </mxCell>
        <mxCell id="vWphqgwW-3ebV2k3nfvZ-19" value="&lt;font color=&quot;#000000&quot;&gt;Locations&lt;/font&gt;&lt;br&gt;Kubernetes Engine" style="editableCssRules=.*;html=1;fontColor=#999999;shape=image;verticalLabelPosition=middle;verticalAlign=middle;labelPosition=right;align=left;spacingLeft=20;part=1;points=[];imageAspect=0;image=data:image/svg+xml,PHN2ZyB4bWxucz0iaHR0cDovL3d3dy53My5vcmcvMjAwMC9zdmciIHhtbG5zOnY9Imh0dHBzOi8vdmVjdGEuaW8vbmFubyIgd2lkdGg9IjMyOS45MjU5OTcyMzE3OTM4IiBoZWlnaHQ9IjM3OC4yODQ5OTAzMTEyNzg4IiB2aWV3Qm94PSIwIDAgODcuMjkyOTk5MjY3NTc4MTIgMTAwLjA4Nzk5NzQzNjUyMzQ0Ij4mI3hhOzxzdHlsZSB0eXBlPSJ0ZXh0L2NzcyI+JiN4YTsJLnN0MHtmaWxsOiNhZWNiZmE7fSYjeGE7CS5zdDF7ZmlsbDojNjY5ZGY2O30mI3hhOwkuc3Qye2ZpbGw6IzQyODVmNDt9JiN4YTs8L3N0eWxlPiYjeGE7CTxwYXRoIGNsYXNzPSJzdDAiIGQ9Ik00My43NTEgMEwwIDI1LjQ2NXYyLjU4OCA0Ni45Mmw0My43NTIgMjUuMTE1IDQzLjU0MS0yNS4xMjFWMjUuNDczem0yLjQzOCAxMS44NTNsMzIuMTAzIDE4Ljc4MlY2OS43N0w0My43MzkgODkuNzA1IDkgNjkuNzYyVjMwLjY0MWwzMi4xOS0xOC43MzZ2MTQuMTU0TDI0LjUwMyAzNi4xNTNsMTkuMTcyIDExLjUwMiAxOC44ODYtMTEuNTU0LTE2LjM3Mi0xMC4wMjR6Ii8+JiN4YTsJPHBhdGggY2xhc3M9InN0MSIgZD0iTTIyLjAyNSA0MC40OTZsLjE2NiAxOS4xNDMtMTMuMjQ3IDcuMzN2Mi43NDJsMi42MzcgMS41MTQgMTIuNjQ4LTYuOTk5IDE2Ljk2MSAxMC42MDJWNTEuOTkzeiIvPiYjeGE7CTxwYXRoIGNsYXNzPSJzdDIiIGQ9Ik02NS4zNDQgNDAuMjZMNDYuMTg5IDUxLjk3OXYyMi44NDdsMTYuODk5LTEwLjU3NiAxMi41MzkgNi45NzQgMi42MDktMS41MDV2LTIuNzY1bC0xMi43ODQtNy4xMTJ6Ii8+JiN4YTs8L3N2Zz4=;" vertex="1" parent="vWphqgwW-3ebV2k3nfvZ-18">
          <mxGeometry width="26" height="30" relative="1" as="geometry">
            <mxPoint x="17" y="15" as="offset" />
          </mxGeometry>
        </mxCell>
        <mxCell id="vWphqgwW-3ebV2k3nfvZ-45" style="edgeStyle=elbowEdgeStyle;shape=connector;rounded=0;orthogonalLoop=1;jettySize=auto;html=1;exitX=0;exitY=0.5;exitDx=0;exitDy=0;entryX=1;entryY=0.25;entryDx=0;entryDy=0;dashed=0;labelBackgroundColor=none;strokeColor=#4284F3;strokeWidth=2;align=left;verticalAlign=middle;fontFamily=Helvetica;fontSize=12;fontColor=#000000;startFill=1;endArrow=blockThin;endFill=1;startSize=4;endSize=4;startArrow=blockThin;" edge="1" parent="Lif8JBEafslfNm7ranTe-1" source="vWphqgwW-3ebV2k3nfvZ-16" target="vWphqgwW-3ebV2k3nfvZ-22">
          <mxGeometry relative="1" as="geometry">
            <mxPoint x="549.9952784856205" y="300" as="sourcePoint" />
            <mxPoint x="471.21568620313064" y="355" as="targetPoint" />
          </mxGeometry>
        </mxCell>
        <mxCell id="vWphqgwW-3ebV2k3nfvZ-16" value="" style="strokeColor=#dddddd;shadow=1;strokeWidth=1;rounded=1;absoluteArcSize=1;arcSize=2;" vertex="1" parent="Lif8JBEafslfNm7ranTe-1">
          <mxGeometry x="529.9952784856206" y="270" width="171.21951219512192" height="60" as="geometry" />
        </mxCell>
        <mxCell id="vWphqgwW-3ebV2k3nfvZ-17" value="&lt;font color=&quot;#000000&quot;&gt;Users&lt;/font&gt;&lt;br&gt;Kubernetes Engine" style="editableCssRules=.*;html=1;fontColor=#999999;shape=image;verticalLabelPosition=middle;verticalAlign=middle;labelPosition=right;align=left;spacingLeft=20;part=1;points=[];imageAspect=0;image=data:image/svg+xml,PHN2ZyB4bWxucz0iaHR0cDovL3d3dy53My5vcmcvMjAwMC9zdmciIHhtbG5zOnY9Imh0dHBzOi8vdmVjdGEuaW8vbmFubyIgd2lkdGg9IjMyOS45MjU5OTcyMzE3OTM4IiBoZWlnaHQ9IjM3OC4yODQ5OTAzMTEyNzg4IiB2aWV3Qm94PSIwIDAgODcuMjkyOTk5MjY3NTc4MTIgMTAwLjA4Nzk5NzQzNjUyMzQ0Ij4mI3hhOzxzdHlsZSB0eXBlPSJ0ZXh0L2NzcyI+JiN4YTsJLnN0MHtmaWxsOiNhZWNiZmE7fSYjeGE7CS5zdDF7ZmlsbDojNjY5ZGY2O30mI3hhOwkuc3Qye2ZpbGw6IzQyODVmNDt9JiN4YTs8L3N0eWxlPiYjeGE7CTxwYXRoIGNsYXNzPSJzdDAiIGQ9Ik00My43NTEgMEwwIDI1LjQ2NXYyLjU4OCA0Ni45Mmw0My43NTIgMjUuMTE1IDQzLjU0MS0yNS4xMjFWMjUuNDczem0yLjQzOCAxMS44NTNsMzIuMTAzIDE4Ljc4MlY2OS43N0w0My43MzkgODkuNzA1IDkgNjkuNzYyVjMwLjY0MWwzMi4xOS0xOC43MzZ2MTQuMTU0TDI0LjUwMyAzNi4xNTNsMTkuMTcyIDExLjUwMiAxOC44ODYtMTEuNTU0LTE2LjM3Mi0xMC4wMjR6Ii8+JiN4YTsJPHBhdGggY2xhc3M9InN0MSIgZD0iTTIyLjAyNSA0MC40OTZsLjE2NiAxOS4xNDMtMTMuMjQ3IDcuMzN2Mi43NDJsMi42MzcgMS41MTQgMTIuNjQ4LTYuOTk5IDE2Ljk2MSAxMC42MDJWNTEuOTkzeiIvPiYjeGE7CTxwYXRoIGNsYXNzPSJzdDIiIGQ9Ik02NS4zNDQgNDAuMjZMNDYuMTg5IDUxLjk3OXYyMi44NDdsMTYuODk5LTEwLjU3NiAxMi41MzkgNi45NzQgMi42MDktMS41MDV2LTIuNzY1bC0xMi43ODQtNy4xMTJ6Ii8+JiN4YTs8L3N2Zz4=;" vertex="1" parent="vWphqgwW-3ebV2k3nfvZ-16">
          <mxGeometry width="26" height="30" relative="1" as="geometry">
            <mxPoint x="17" y="15" as="offset" />
          </mxGeometry>
        </mxCell>
        <mxCell id="vWphqgwW-3ebV2k3nfvZ-42" style="edgeStyle=elbowEdgeStyle;shape=connector;rounded=0;orthogonalLoop=1;jettySize=auto;elbow=vertical;html=1;exitX=0.5;exitY=1;exitDx=0;exitDy=0;dashed=0;labelBackgroundColor=none;strokeColor=#4284F3;strokeWidth=2;align=left;verticalAlign=middle;fontFamily=Helvetica;fontSize=12;fontColor=#000000;startFill=0;endArrow=blockThin;endFill=1;startSize=4;endSize=4;startArrow=classicThin;entryX=0;entryY=0;entryDx=0;entryDy=0;" edge="1" parent="Lif8JBEafslfNm7ranTe-1" source="vWphqgwW-3ebV2k3nfvZ-20" target="vWphqgwW-3ebV2k3nfvZ-29">
          <mxGeometry relative="1" as="geometry">
            <Array as="points">
              <mxPoint x="300" y="180" />
            </Array>
          </mxGeometry>
        </mxCell>
        <mxCell id="vWphqgwW-3ebV2k3nfvZ-20" value="" style="strokeColor=#dddddd;shadow=1;strokeWidth=1;rounded=1;absoluteArcSize=1;arcSize=2;" vertex="1" parent="Lif8JBEafslfNm7ranTe-1">
          <mxGeometry x="170.0039352020386" y="90" width="171.21951219512192" height="60" as="geometry" />
        </mxCell>
        <mxCell id="vWphqgwW-3ebV2k3nfvZ-21" value="&lt;font color=&quot;#000000&quot;&gt;Auth&lt;/font&gt;&lt;br&gt;Kubernetes Engine" style="editableCssRules=.*;html=1;fontColor=#999999;shape=image;verticalLabelPosition=middle;verticalAlign=middle;labelPosition=right;align=left;spacingLeft=20;part=1;points=[];imageAspect=0;image=data:image/svg+xml,PHN2ZyB4bWxucz0iaHR0cDovL3d3dy53My5vcmcvMjAwMC9zdmciIHhtbG5zOnY9Imh0dHBzOi8vdmVjdGEuaW8vbmFubyIgd2lkdGg9IjMyOS45MjU5OTcyMzE3OTM4IiBoZWlnaHQ9IjM3OC4yODQ5OTAzMTEyNzg4IiB2aWV3Qm94PSIwIDAgODcuMjkyOTk5MjY3NTc4MTIgMTAwLjA4Nzk5NzQzNjUyMzQ0Ij4mI3hhOzxzdHlsZSB0eXBlPSJ0ZXh0L2NzcyI+JiN4YTsJLnN0MHtmaWxsOiNhZWNiZmE7fSYjeGE7CS5zdDF7ZmlsbDojNjY5ZGY2O30mI3hhOwkuc3Qye2ZpbGw6IzQyODVmNDt9JiN4YTs8L3N0eWxlPiYjeGE7CTxwYXRoIGNsYXNzPSJzdDAiIGQ9Ik00My43NTEgMEwwIDI1LjQ2NXYyLjU4OCA0Ni45Mmw0My43NTIgMjUuMTE1IDQzLjU0MS0yNS4xMjFWMjUuNDczem0yLjQzOCAxMS44NTNsMzIuMTAzIDE4Ljc4MlY2OS43N0w0My43MzkgODkuNzA1IDkgNjkuNzYyVjMwLjY0MWwzMi4xOS0xOC43MzZ2MTQuMTU0TDI0LjUwMyAzNi4xNTNsMTkuMTcyIDExLjUwMiAxOC44ODYtMTEuNTU0LTE2LjM3Mi0xMC4wMjR6Ii8+JiN4YTsJPHBhdGggY2xhc3M9InN0MSIgZD0iTTIyLjAyNSA0MC40OTZsLjE2NiAxOS4xNDMtMTMuMjQ3IDcuMzN2Mi43NDJsMi42MzcgMS41MTQgMTIuNjQ4LTYuOTk5IDE2Ljk2MSAxMC42MDJWNTEuOTkzeiIvPiYjeGE7CTxwYXRoIGNsYXNzPSJzdDIiIGQ9Ik02NS4zNDQgNDAuMjZMNDYuMTg5IDUxLjk3OXYyMi44NDdsMTYuODk5LTEwLjU3NiAxMi41MzkgNi45NzQgMi42MDktMS41MDV2LTIuNzY1bC0xMi43ODQtNy4xMTJ6Ii8+JiN4YTs8L3N2Zz4=;" vertex="1" parent="vWphqgwW-3ebV2k3nfvZ-20">
          <mxGeometry width="26" height="30" relative="1" as="geometry">
            <mxPoint x="17" y="15" as="offset" />
          </mxGeometry>
        </mxCell>
        <mxCell id="vWphqgwW-3ebV2k3nfvZ-31" value="&lt;b&gt;&lt;font color=&quot;#8f8f8f&quot;&gt;Microservicios&lt;/font&gt;&lt;/b&gt;" style="text;html=1;strokeColor=none;fillColor=none;align=center;verticalAlign=middle;whiteSpace=wrap;rounded=0;" vertex="1" parent="Lif8JBEafslfNm7ranTe-1">
          <mxGeometry x="46.57" y="50" width="103.43" height="30" as="geometry" />
        </mxCell>
        <mxCell id="vWphqgwW-3ebV2k3nfvZ-32" value="" style="group" connectable="0" vertex="1" parent="Lif8JBEafslfNm7ranTe-1">
          <mxGeometry x="279.99617400800867" y="340" width="171.21951219512192" height="60" as="geometry" />
        </mxCell>
        <mxCell id="vWphqgwW-3ebV2k3nfvZ-22" value="" style="strokeColor=#dddddd;shadow=1;strokeWidth=1;rounded=1;absoluteArcSize=1;arcSize=2;" vertex="1" parent="vWphqgwW-3ebV2k3nfvZ-32">
          <mxGeometry width="171.21951219512192" height="60" as="geometry" />
        </mxCell>
        <mxCell id="vWphqgwW-3ebV2k3nfvZ-29" value="" style="shape=image;verticalLabelPosition=bottom;verticalAlign=top;imageAspect=0;aspect=fixed;image=data:image/png,iVBORw0KGgoAAAANSUhEUgAAAQAAAAEACAYAAABccqhmAAAAGXRFWHRTb2Z0d2FyZQBBZG9iZSBJbWFnZVJlYWR5ccllPAAAA3hpVFh0WE1MOmNvbS5hZG9iZS54bXAAAAAAADw/eHBhY2tldCBiZWdpbj0i77u/IiBpZD0iVzVNME1wQ2VoaUh6cmVTek5UY3prYzlkIj8+IDx4OnhtcG1ldGEgeG1sbnM6eD0iYWRvYmU6bnM6bWV0YS8iIHg6eG1wdGs9IkFkb2JlIFhNUCBDb3JlIDUuNi1jMTExIDc5LjE1ODMyNSwgMjAxNS8wOS8xMC0wMToxMDoyMCAgICAgICAgIj4gPHJkZjpSREYgeG1sbnM6cmRmPSJodHRwOi8vd3d3LnczLm9yZy8xOTk5LzAyLzIyLXJkZi1zeW50YXgtbnMjIj4gPHJkZjpEZXNjcmlwdGlvbiByZGY6YWJvdXQ9IiIgeG1sbnM6eG1wTU09Imh0dHA6Ly9ucy5hZG9iZS5jb20veGFwLzEuMC9tbS8iIHhtbG5zOnN0UmVmPSJodHRwOi8vbnMuYWRvYmUuY29tL3hhcC8xLjAvc1R5cGUvUmVzb3VyY2VSZWYjIiB4bWxuczp4bXA9Imh0dHA6Ly9ucy5hZG9iZS5jb20veGFwLzEuMC8iIHhtcE1NOk9yaWdpbmFsRG9jdW1lbnRJRD0ieG1wLmRpZDo5NDMwOWNjZS0zYjViLTQyNWMtYjNlZS1mYTA0NDBlOTE2YzgiIHhtcE1NOkRvY3VtZW50SUQ9InhtcC5kaWQ6QkRDQjNGRUEyQ0UwMTFFNjk4OTlBRUU2NzEyNkREMkMiIHhtcE1NOkluc3RhbmNlSUQ9InhtcC5paWQ6QkRDQjNGRTkyQ0UwMTFFNjk4OTlBRUU2NzEyNkREMkMiIHhtcDpDcmVhdG9yVG9vbD0iQWRvYmUgUGhvdG9zaG9wIENDIDIwMTUgKE1hY2ludG9zaCkiPiA8eG1wTU06RGVyaXZlZEZyb20gc3RSZWY6aW5zdGFuY2VJRD0ieG1wLmlpZDpiMmUwNGIwMS1jYjQ3LTQwZjAtYmU1Yy0wZTZmNWM1ZGRjZDgiIHN0UmVmOmRvY3VtZW50SUQ9InhtcC5kaWQ6OTQzMDljY2UtM2I1Yi00MjVjLWIzZWUtZmEwNDQwZTkxNmM4Ii8+IDwvcmRmOkRlc2NyaXB0aW9uPiA8L3JkZjpSREY+IDwveDp4bXBtZXRhPiA8P3hwYWNrZXQgZW5kPSJyIj8+d8ZoagAAOkRJREFUeNrtvXeYHFeVv//equqcJieNNMrJCrYc5RwJNhgHwhqTvSx4iQt4AbN8Dbss6yWHxbCENeBAMBhsbJJzkJNsS7LSKIeRJufO3VV1f39UTw4ayfba/Pa8euqRNNPdVV117+eee8655yqtNYIg/N/EkFsgCCIAgiCIAAiCIAIgCIIIgCAIIgCCIIgACIIgAiAIggiAIAgiAIIgiAAIgiACIAiCCIAgCCIAgiCIAAiCIAIgCIIIgCAIIgCCIIgACIIgAiAIggiAIAgiAIIgiAAIgiACIAiCCIAgCCIAgiCIAAiCIAIgCIIIgCAIIgCCIIgACIIgAiAIggiAIAgiAIIgiAAIgiACIAiCCIAgiAAIgiACIAiCCIAgCCIAgiCIAAiCIAIgCIIIgCAIIgCCIIgACIIgAiAIggiAIAgiAIIgiAAIgiACIAiCCIAgCCIAgiCIAAiCIAIgCIIIgCAIIgCCIIgACIIgAiAIggiAIAgiAIIgiAAIgiACIAiCCIAgCCIAgiCIAAiCIAIgCIIIgCAIIgCCIIgACIIgAiAIggiAIAgiAIIgiAAIggiAIAgiAIIgiAAIgiACIAiCCIAgCCIAgiCIAAiCIAIgCIIIgCAIIgCCIIgACIIgAiAIggiAIAgiAIIgiAAIgiACIAiCCIAgCCIAgiCIAAiCIAIgCIIIgCAIIgCCIIgACIIgAiAIggiAIAgiAIIgiAAIgiACIAiCCIAgCCIAgiCIAAiCIAIgCIIIgCAIIgCCIEzAOob3fAmtDYoZcDWgfZi+Q3Tu+j2RigOUzRr1Ug2pnlH/V2Ca0LnbIhB9ExVzzkS7BUzrWbr330vdkgyol/5b5tIGyTb/lJ+tFBg+RShRJBS3uf1TMH81nPhmMAzIpSBS6X2fI11f935o2QBNJ4Gdh5qFYOfAdUvnMsDye+c8Igo6dwcxTKiYnUPrI7/F9M38vmR6TVK9PqIVRcIVzkt6z7MDJsluH2iF5Xcpm5XHdSbed9cBK+D9f6AVtAMb74bzPsyY76uOrV24M7lnHF2rUzO8Fq31pK8tFos4rktXbxez6xtxtatcx31trpB7veuSNk0VDAXD38nn8y0Bn9852HqIpsbZFO0ifp//FRYAO389m+5WPH8X2EVQGoLxfmoWX8SK1/wU0/8HnGJ++K5awVH2hgnpvpX0tF7GjgfeTf+hBSgLYlUtLD73bCpmfw1lHJjRdfiCM39sA63vp2vPaaUePPFtygDDZxKM7SFW82eU0YEvmMUX6vTeol9aQdIailnvvNMbaPPo2PNZTFMTCP8EVz8z7cudIpQ3zrSzKHoOfpj+ttXk6zcQrvgBWhdn0Ppn9h37Wj5Iz6E1oH34w30Eojfh2DvG3gcXQvGX5Ja6rhtLZzPLHcfxKUNpAEMpOxKOPqeUso/4tTToGT7nfKEwJ5fPzR5uRxodDAQPAwdGD36maWGZ5uQdz/t5XSqTrkmmkye3tB7+dH9ycJF3iw3qqmoWVZaXPxiLRO4zDeOQUqr/5bAAlNZH2bjbdxT48hk+unq8CYQq9Y8ssHwF1C88nWLhSdDgC8Dbvzvy3khFnD9//X/44f+7kvioCYgu/ftDt34Py//hGXWgEy6b2WinlOJHVw3w+C9jWKVzuZNMhAwFhg+iNTB7VTvz1uxjyfm3UDvvKSqaNox80ZfAAkBB30EoZKb/PMO8ns+f9O/4FFzxxZ/j2O+e8rXFHFTNg9PeAYbFEa0FpYJ8aW0fzU8FWbG2h888cRzFXMf0emSAOcMR6BsXpNj8YAQHqJoFb/3yp8kmvzJGSLIDcMb7IF7rXe+LsAB6+nsvfWz9k3cNplNYpoXWGr/Pci4849w3BQPBP7mudqdpUPh9PkzDPKIImIbJxm2bb966u/k9oFDKO9YsX3mj1vqzQwNMoVikobaeqrKKiWdzXbr6ei7f13Lg0y3trWuS6ZQPDYZhgNZoNXQug/JEWWdTfeNjc2c3fTEWiW5+5acA6T4Y6IH4uLYbAtJdcDgfRbteZ7GC0HdolHSmqsknZxHHe/+YBgwc3t6AOYNL0i6sfmOpMc5AwAwzjUkMVer8kYj3GaOnKskc5AvQfQgOHKpj/R/rUF9ay8rzOrn0M19l+WtuBtXzktx104SqBdC2ZXo3jDJymGYRU1tgFCYXCwX5FNQsgrVXgzI9MRgyq6ezAEwrg0UQ08h6H6SPdB8h3QuRihl8RyuNSQQFmEYWZRQxRn1X1/bE0ReaudU0jQgUi3Y8XyhgmSaGUmAo8oWi2drR/u7qisoHgNx004RENIbyKaYbEBUKB6eqp7/3eNdx8fl8JQEwbJTKjzb9w8EQQX9gMkuletf+vR/e1Lz1+nwhb7muQzgQJBaNpv3+wCAax3XdcDKTqshkMgwMDtZsGtx25cG2wyectPL462uran4L2K+cACgDzNJoqMf2IQwLrIDrzfW010GNUacwLBdl2sOvH9+QTZ99ZAFQkBs8OrNcKe99gaBD00nr6Ny+nmB8ZIRJ9cA5b1IkGk3ydpRk20lsuWc1PRnY9FANOx/9Kn/3n2s4/0PXYQUPvzQ2a9Ez2U3L67RTTUyVKv1tuBOmDEpBdhDql8OJV5T6sAvZfojXzcQKGDpHyS5SU46QKMOzYtp3wIK1M/ABJCOkh/8dxM5b2LmRL5bthzVvecmmAEop1zAMHNchGAxiF220BYc72o5btnCxZagZ+LtnYOAdONzyD72DA0stn4XPsnBc77apsZ2c8ngZ0XBkjD8AqH5+6wvf37q7+UqrND1obJy9ta6q9sF4NPoUii7LtOx0Jht3HHtN70DfGfsPt1yQy+XoGxyY/8ATj/3y9DUnf3Zu45xvAIVXygn4yqEUZAZgxUUzN0VHjyC+SJ4zP/Bjnr31FvY+AeFy7+fpQTj/4zD/NO+1rZuOo33L61h77tncd9OlOA784jNX4Y8lOfcfrgMGmcyiVMbMhcl1vdE/VgPJrhn4Aya7F/3QuAqOv8wbnV3H+9swX0qHRWn0PUon45or15GYtRKtFbGqDLWLuymUBEA7EIhAIDzx/kUrqvAHzwPuOForwBvNXcriCbKZLAOpQbp6upf39fe9ubK88md6GkVUKFztTmsBmIZJR3fnimQ6FaypqBxorK3fv/vA/uWOdtW4UR7btifMRJ/f+sK3tu3ZcWXA58cwTNYct+rmebPnfNs0zE2DqSS9A334fX5y+RwL58y7a+7sObW1VTXv2rJz+7/09PXGtXZ5bsumL4RDkeaaysrfvxRP1/ib6vzpPlj5Wlh+oTcfnW5aN1Wn8wUCnHgVzD8TMn0jo2Cmr2RLZiHZsxXT/3Xe8pX3ceW/fp8sYNtw75fexf7nLh6ehow/JjdtppFfP4TKPXP4WIRwzgklX4jlWRMvxrU9lQkyvsOpUgcuZqd/63Gv+SAnXXE5J11xGSsvfhuV8+6hdhHULvJ8FfNOhWB8bA9Rai0/v/Yutqy77lgdkK6rCQfDPYvmz1/n9/kHXTS9A/2nee+e+s/IJUx9FIrFhZlsdhFaU1VeuWXp/MXXKaUGR/cjV7vEolHK4omxrqHenjfsOrj373yWD4XilNVrvjtv9pyPmYa5CTSuO7YtF+0iuXy+o7Gu4aunHn/iNRVlZWllKPKFfGDbnuZ/zuZz8/7vCMDQaLf6Elh2vjcS6JJ3/mhFwC54PX7N22DBWd7nTtqSbCjmerjks5/j0o/cTRE41BJk071vBipRJhOOox5cXW9EDZWPOAlnQiEL80+BVW/wLCG7+BLfcO19H9OcXM+0hkLa8zVM6SpP7yOXfJpc8mnyqWdxil3YBe/ag4nSlEKPHHa+lv957y/4689Op/eQMWkbOLgBuvZM+8xd1yXg92+b1zj34+FweJ+BYveBfW9wtZtwtctUh8YL2RnKmPI42Nry5raujhMMZTCrtuHnwWDwyfEXo7Um4A8QCARGX1PTph1b/lW7rgGa5YuX3FNdXvG5XC6XPJLTUWtNebzsN2uOW/0ZQ5kopTjcdvi0vQcPfKLkefs/IADZpNf5l5xT6vzuJOb0UTA0Wq55m2cJ5CdrSY53mFYfC0+6hWDJgbj36VMY7FjkWQ7jjmMSN6NkVrtHd/3RKi8UeiTr4cVc15QmROnnjj29uA2FUPU4Z5FvyDfkjhyuE+Lgs034AJ/fmfAdDm2C1i1Hjpx4vy2ahrGzprJqg2VZ9A70zbJtJzFd51YoHNfBcSY/ANLZTEMunzOjkUg2Ho0+A7joiX1o/DRi/6GD1/T09Z2gXU00GMkunbfohoA/kAwFQ8w0CldbVXP7ikVL7y0Ui7iuVh3dHRdkc9lFrz4BmNQsPtbP0t4DX/U6WHzW1CO+OoaG7treZ518NcxfOWo0U94c+vyPQPP9sP6X4A89yxlXPYENHFjfSOfuFS/Zd9UuhBIQq53ZVKCYg6YTYe7JL31+wrCnvw+yfUf2JShGWWPjmHMiRKshXAFV8z0x1Rr8YbALMNAGxcIooVEOvpA7MUeDUuff6omGaUH/oWkdnFprH2DVV9Ws81lW1jAMDra2XHvEwIVhYpqTH5lcdlXfQP95Gs2smvoNoVCoEzAnuylDnXpIOA62HTqnUCziapfli5fcaZrmBsMwpk0o0jAcRSh9Xm9jfcNPE9GYNk2TlvbWJW1dnecOWT1DxysrAEONOVpVOipB62P/LKcAx10IS84uDSYvcYN3HS9Gf8bfw+w1I8JgF6BqrvddgjGI1xeJ1WZRQLZHURiMvqRip5TXuGfiCFTKG/mPJuNvxuKoR5yIM25Mynsurjv2MH2lBCvT+31vGxRy4I94/7f8sOsR6G9lTHhwPIc2w+HNpWiJGjvITB0RIJfL+yvKKh4PBoL9aNiyc/v7AFNrzdEeAJlstjadzZTbjkt9bd0tfsvXqrX2jRcspcAsJf+Ypkkun1+TyeUaAQKBgFtXXfdb23G07TgUbZui7ZR8mwpDeeJhjLofo68jGo6sb6xvWG87DtrVxmBycK3WuswwDIaOVzYKkO6Gj9/rOadGP8BChhnF98d0fhuWnucdrjPzhn60IjE0gmkXckk4vBWckod+qEMaPjD9ejgpcMjsG32qCRlfemQEHZ0NOXzn1VhrJFbtXcNA69Sd27EhXAbVc0c6n+k7OjGYsRCUPtMXPPbPGPPvSZ6L6YPmB2H5RRCtKgx3cGV4vfvwZji0cfJcgf5DUNE05bzZ57P8pmk2V5ZXPJlMp65wXMefL+YXmIa5czJDpmjbU6YN+yxfoq2r45rOnu5Z8UjMDgWCXZO5WV3XJR6JUltVM/yzvS37r0qmkvOVguryqn2hQODhyTpqIuY5RAfTSWbV1GGZ5oRIgmVarTWV1Q807911imX62H+45YqmWbN/WJ4oe+iVDwPqkqe8mPONhGyAhmVw6AUv1m6aCievZtT5l517dJ3/WL3cdg5iVV4H3vpnTwDmnjSSZKQU5Af99Ld4bt1IJQTjg8Pm8vjGrrXXsKPVEbr3zKdl42JSXRUUHT8KMEybUCRFrO4A4bLNGObAsAhZfu9w3YmjtluaUwfjQx0+TvfuU+g73EC+EAJXEQxnqFuymVDZ1mOLE5fi/ZFK6GtZTe/+paR64zi2H58vT6K+hVDseQyza3KhVWPbViAyG9dR+ENJHLcLX7Bk6SgwrBD+cDXRch/7n3aZd2oDrl36CDdEMTOXzl3KE0Y9FD40sPwpTF+nl7w7hVlrGAykkioejTKvcc49La2HLnEcHd178MA/Lluw+OOTmv/TDFC5fG5OT1/v8YVCgeULlz5QVV7xpOu6w9GD8d3Ae5wuhmFYvf19SwrFAqZhUpEo21coFHLKmLwL5IsFqiuqJk0gGpoAhkPhp0OBoC7atuod6Pdnctmy8kQZr6wADKXyFjQ4hdLExQGtPG9ywwrY+Qj0tyoKGWPqiUdpJF5+vufwc4rHFh+fqRXg2l5W24qLvJH10CZ47Ga48J8gPCqMc3jzLLY9sgoF1CxLUz5735SmdazaYtejF7P+jjew+S+vZctdc2hPe6nSCggAZcCic9KcdMXvWfm6/6F28YO4tpeXkE9BqnvsqK5LadVzjvfEKtl5AZv+9G4e+cE72b0VBkpPsgI44dKDnPKWX3PCm/6bQGz3UT1FXwjsfD1b/vpenrztfWy4YwFdriclcWD+Ilj7nj9w/CU/pnHV3eRSE30/w53CbWLLfb/CcfxUzL8Pu/hJyuuhaYU3xfKHzmHH45+l52A5pnJ49ncW6R6FD2jbuJDfXH8HGmuMc9TWFlo9QaTsk2CkSNRPPbdVCttxqKms/rlGf9d13UBrR8fpS+YtjNuOPTi+2ZmWyWTJQkopBlOphR3dXYsCgQDVFRV/NE2z1XGcCXN4pRRF22YwOYjjugQDwcW248xVJSdjebxs32A65U41V1dKkc/lKBQKk4pLycroLYsnkh09XXHTMCgUiysKxeKfHNfJAYQCwVdAAEqJdriA6XMnjOiW33PitbxQQNtTWwBWwGb2Kq/z27ljC60djemPggWneSJQKDXmQMQ7d1srVM7xzPfDW06npTWAAmav3kCsZie5Qe8zgtHRHvMoz9/9Re777kfZvMEiBySAhU1QPisLaAa7wuzbBesfibDhkatZddpFvOuHH2L2yt8A3gifT3uZgqPvYaTcYdkFsO2v7+L3X/4GTz5SSQQ47qQ+yutbGeyoZ8szFTx89xzW3/0pXvP+s7j0ix8iUf/ckYVRAxTJp2fz+3/5CXd/+yJ6gEUVcPaJB9AO7H+hiR27YOfn3shTt57P27/zOZZf+G0ve055oTxnzDWXc+9XT6QINJ3UST7jdX7TKa2uLF/Mn75+Njs7wFdyp1WXWmR3a4Rbvn3ShIEiC6iiQVWTD8OEBadPOyZZnoXm1FfXbjvY1npyMp1cNphKnhPwB/6gx1lthuklcemJnVIlU8nlA4MDxqz6ht6yeFnz5AbPkAAU6e7v8YIdPl9TsVioVqVck2gk/Ew4HClO5fk3DYPO7m4y2cyUDkK/35+NRqJ9bV2dccM0SKaSF/UGQj+xHbsVoLGu/hWaAhglAdj8x7ez4PSHMazk2DMFAU5g0wMLmSyJT2k4tHEpr/3ocqAZK/giluGp6d+qtefg2/MoWCac+d6xT1O7sPsJqJgDfa2ncvc3P0QQCAVg0doHsHxtOIVR51Cg3RBP3fJlbr72IySz3oh5/uV7WHXZ7fTs2YXlTxEIa/ZvjHHWB09j3Y/fzf7tEbY+VcMdn76Rf/j5TqJVLxBKeItksv0jX0YpjT+cZ7BjFXd8/qs880wl555/gGjNj6ie8zzHXdRK88P1rHnr6Tz0nX/i0MEo9/3oVFy+xzv+6ypM/77pn50vCwT4y9e+xS+/fRF1MXjbJ3+J4/6ZmqZdmD5F37eOZ8nZ1/DYnSewf3uEm99zI9f+pp/5p/0MtzTt0dqz/ErmKmWxAsWin0R1mkw/zFnpzfdTPeAPreOKG/5Mz4FZmH6H/KCfdT9aTiYDtU0ZrnjvdlzXYHSWXTFvsup1jxAqKxxNltPKpcd94UDr4T/YdjHU2dtz+uK58//A9AHOkZSLYmFuW1fHFYZhUJZI7Az4/TuKtu2tN5jMTeO65Av5IWvAcF1XGaVEIp/Pv8lv+dyp26aiLJ4gHApNJwAdvQP9e1zXbTINg6JddHP57HDE4X9hCqCm/nEYuP+7f8fBTfXEq7qGX6zQ2LbBoW2r6NpfNWn6ggFs+sNqbnr7r6hpbMWwNL6ggxVwjmDGK4KJLCe+9buUNzyGXfAWwlj+KUa80qjduw/+dAtcFp38c0NxsAur+eHbf8Le9XNwgZWv286qi29HmfaYLDaAvpZzue1THyafhagB51/7Z954w2eJVW/kkR9A+06vc9g5eN0nfsGycx7lV5/4Fs8/WkfzAwvY+Lv3ceb7P+5NIp2J3rTB9lU8ddv/44lnajhn7T7ef8s7eehH6+g/6GUxpvs2cekNf2bRGc9x83t/yMHmGh792anMWn49F378/dNaAVrX8fTtv+Tur5zLvLlw5tu+xgUf/iJb7kvRsw9CMXCK6zj5bQ9Qs/hG7rrxTXQcDnL3Fz/HB37xPMHEZi+E6U4yIWbEv7F/I7Rsh2VnAzzHKW/5B4r5GNp1CJfXsvG3DzGQMag+bjeX3vB2eg4oLN9o+9ckUtGDsjIzmw16zS8eiT1pmaZRsG3aOtvWLp47f0KHUUpN6kUfTCXn7z10YE0oHKIqUXF/wB84rF130i6slMKxbZLpNEop/D6/5WptUVr+G/QHuqbtQ16kAL9vaqeuZVmtAb9/u0afjwLbtq1CIW/Yrvu/JABOfhqbC29xyjP3nDPhe7olMy88xeCsgGLW4Nm7V2CyYngQN46Q96EB14TutnKu/sbV5JKd03rF/RFN1y6496uQ7J98MUq4HOz8NXztNdez+9n5KGDxiZ1c+eVPE4jtnHgNTpSnbruO7m5FAJizup9Lb/gx/shG754VR/kLNOQGbJpO/BWXf6mCfW+8iZ4B2Pf8Sk63K0n39Xh1FtTIjXFsg/W/PJO9Ww1OWLWXa3/1bsoa1pHuG3mdUpDugQWn3cXbvrGUr1x8I7kCPPWrS1h79dlEqh+dYrIM/Yfj3H3DuSjg1Df9N7GaG+g7lKGYH1lIlUtCdqCZE9/0Kbb86Wz2bypn+4OLWH/nOzn7ff/sidY0Vpfl90Tw8FZPALQL2cEWMgNQORdMf89wVFoZGWAnhgWDnSP+ENfxIgJmSdynKY7hzd2TJOIJDKVSC+fM++O2vTsuHkgml2WymbNCwdBjo01xpRSD6RSOO5KKYJqmL5lJn1Io5Kmtqu2tKCt70jJN21Vq0pi767pEwxHmNDR6Y8Jgv9Pa2a6HOvYzLzzvGFPkVhSLBRbNnU9tVQ16+rCtYyjVTylz0XFds+jYOO6xGcsvTR6AHicCkVJHD406oqW/p7vOIYHwlz7HKv3MmOYwSw2j58ByCqkVZHq9dfiTN3aD1i0x7vkPyHR5DrkhP4MVmIPpuxErsIl/PaWZOz75LXaUOv/Jl+7mo7/5R2Ytv2ckFj0UPgTsYozmB88j4odwDFZd+iDR6nuGV0I6Bc/h6NqlqEbpM+qX/YUlpx8gDyQHaujaM4v27V7YdMghpUorB3es82NnLC58z50kGh7HzpUcrSXH2+hoydwTb+asqx/HBPY8V8ejP756uAPpcapraK+GwaHdsPSs7bzxC//Byksy1C0Fu5TvX8jCtbfBqtdD7eLdXPnlfycPZArw/J2Xk+k7BdPvTfOmctpq7eWGPP0b2PjHUiqw44XywuXgOuERb7/rfUhZvRceHZ8gpYBQ5Ah2qucETKaSJNOp4qz6hj8YmKQz6eod+3Z/dHyev+dACxAJhQiHQkTCYUzDSLR1tp9vmhbl8URzPBzdkkwlsW17UhNda43PsohHY8SjMdLZzGmDqWS5MhQ+y18cTCV1X38fkx3dfX3k84VhMZrqKP0+PfqcrqvRros+Bivg6C2A6VbhaY7td9M5Fmcy1TPx8gxcxzeccTbZSJftC/CX//g38pnP4DMhruGuLyru+aoG7UMX4zhpk4INfgvWXryPM99/JwvWfg+t9+PJ7sTkGsvfzzt+8CFS3cvwBbupWnAb2s0PF+Y451qvsyoDtt8Pux73kl98gRwLTmnjkT81MXCoBitQy7zTvBh3PgXmqM5UdGDJCTs470P/RXbAuzGX3eBlK6a64DX/5I2O2QEIRLs45/2/5tHbzsQuKlq2nMxg2xL623dQvWCi1VO0obwyx5nv/hn+8AEiFaV6AqMSb6rneQ5SpaBu0e9ZefJneWF9JYdfaOLwCytZdM4zRx5uTBjsGll/UdFUKl7iTj0+JRq8aFK6e1z7mNnYFQ6FsUwTv9/354qysv1dfT1z+5KDlYDh6pETDyXwDBueyiCdSS85cKjlXNMwCAYCzYFgsMVyfaXsZj1lDsLIbbVjWrumdhWmaRT9Pt+U71OGwrRm7PR2RjqGVto7XsEwoHoZslLVsdghSk//RleRy0TQRHBL99BOw9DC9aG3RuJw7rUDvPa616KdfcRq7Gkz45TKEi6/CbSBFdT4Q3p4lWGyGwJRCMRKHqmLoWWzNy0IhF2itRlMoHtfDX2HTqBy7n0TGrcLBIOaFa97kGLxwHDaciDsddRC1vMtpHuHauxpivnH8JfW8Hc0L+Pp21eT6dvBae+eKAA2UD5vL6dc9SNyA2D5PCE5/R3Q/LDXOzpHzXx8wR5OvuoRNqy/go4WH3ufOoNF5/yMXNIeU/9hKhEYSjI60muHGlV5Q6loS6cnFsHoUTUQDZjK7Kitqn6mu69nbi6TXT6YSl4cj8bumbI5ax1u7+z4QL5YtMpisXxDbf16QJuGOWOH2+gKK4ahHMOYugCXaagZJ2wqpexhJ6TmRVWts17BDvu/j1ZQ1pCialEvdqFixGvlgp03yA0aJLsCJAdN7v9+gkPb7uGyG75OtPIXGGbyiAlMnh3mmfzaGlmjP/R0hkKP9cugey/4ghoz4Ayb+U7BmLIFx2tSLDnnCZrvH3WzS4lB3fvg958fybb0nG5FjjsnxYaHorRuDxKfU8VFnxy1vn9UA1JAZV0WpXoJjUsqaTrRs0ZGt05/2KV8f5pQqc5OX1cN2i2jkO3GH55Bxz6GkG35rJIVNfPQsFKKTDbrZSQrla+vrXtg885tb80V8pGe/t7GeDQ29RDrOoHegf5GrV3KEonHG2rqfgBwNCX0XFebrquxLEWx6ASdojOlAuQKBWzbmentMFxdWoiglFbe8QoLwEtFAW91njluBAzgxYtfTCNSfrjgY7/n9dd9mtzAazBMz1ng2Ab5tJ+uvWF69s9h3c8vY9v9i3n2D4vZct9/897vn8Dp7/lnIHnE0coX9EbifBrqlkz98kglOHYGfzA/ozlSqCLHnNWHyWcmJj4l6j2/x+hGEAgfZNtDv+Wph96NmYXBjqVo7UO7xTEWhgsEIg7LLzxIumd8C4ZIOSRqxtXnM5NUzXuYkPVOcjb0HFxCMdtEvKabYv7FLwKb6vlVzDnKt2hi0ehQyM4F9Zjf8pPKpKOtHW1XNjU0/hJKxTbVWOHI5XNL9rYcOC8YCNiJaOLgkJNv9PqA6SIPAMFAoMuyrKJC+QrFgq+qolKZ0zgBA/7AzL4X2hyqyDW0hPlYvXmvLgFwgJq5eeatfZyAL4su1bgqOnGaHzid/g4fL6YqsmFpbDtD+85Wymp/SmbA6zSO7XXYdJdXVPOEy2/jzuu/yX3fPZ98Dm677hrK5+xm2flfn+azPXM8lPCWL6vsqNE4MNJZlQV+S2FZVeQzC8gNzqwmVqCii2DiIYKJScShzPsOowcBXzBD2c5ncXg3LjDYdjKprjn4wns8E3qUboWqkqy85H84vHWiqFmhUsrzqEZv+jTJnqdoPL6f/mfLOPzCQtp3rGbOmudeXgtOH/Wqz3whTzAQRJU65IKmeY9t3dV8ViqdXpFKp0+Kx+L3T2aR9w8MnmvbRWLRitTcxsa/UkoxHhKBqTp/oVigt78PFAQDwfXxaKw/mU5WZ3M5Tll1gmUdYU3MkSwMpRRaExhxOvqKgUBAO67zNy4ALhCtcXj/rZ9i4Rk/HJfLHuXJn36FX3/2Ggba/cdsCSgD+tpMHrgJznoP1C2AzODYeUw+DanuF7j0C/9I+4772PzX2fR0+3jwpquZveo2BtvbxzjH6pZ6YSpf0Fvt5roj2Y+eJztMf8uZtLywhoF2P5lkEKeYoJifQ36giZ0Pz8N/BKeWZUAw2s2zvxs3bOS8lZIVsyazjhx8oeZhEz8/WM7A4Tjlc0ohmdGRGyNP+exDw36KYdGJwJO/gM59jInHaw2heIrGVdvZ8uxa0p2Q6S1/tRmTSimSqRR+nx9DKSzT6pnTMOsnm7ZvPSuVSUf6koML4rH4/a7WpRXlaiicF911YM/Vpmni9/mSkVDkhZmY/oZSZPM5evr7UUoR8AcMyzK1N1i7FPKFGits7ZvBCD9tdAN0TJWKEfj8Ph0MBv43E4FeLnUHTrj0eRae8V/DcfOhOXMhk+K0d93AhntP55nfrH5R5/EFvJj2up/DGe+AusWQ7BnbuMMVYFo7eOPnb2TjX79HEGjdvJR96y+kZsGtw4k6epTtqEt1NQ0LErU+9j1zBZt+fx7t+2pp2XIG+5+qpj/t+Rvzo3IcyoHgtEOCwvJrqmY18/RtY3+X6vVWBlbMmsqJbuArnauYMcn0G8QbJrEurDxW4MAYywDAF4Z4tVf+a3xuhT/s0rXTKeVvQDH3qiwuMy65R4eCoebyRKI4mErG2rra3zy7vuF3oDpL8/7SCKzCLe2tK0L+QHFWTd3dfp9/G6OW5k7XhC3TojyRAG901qYyXBeNqRX5QuFE07LWaz31HElrd9rJoN9nVRTt4vyhKUkoEDyUiMZT41cO/g1OARRULdzFc3d6jq3lF4C2S46uGCjVhS/WNdPy/NMqjS8IuTQ8fqsnAtVzvdj7UFFNf6lYZeOqu1l82r+z86kyDu8M0bFvCStfP83TCUEhtZa7vnYdm/5yAS3Px+ks5TY01sCyRd7cf95pDxBO5Clkg2y5dyVbn6me1gegDIeqhh7Ka8Z5jpIQjk93S/Xw/XJdheOoicnugM/nAqkJzjtVKo6ijIkWijKHqgkPVU96VbqB9ai4OkAkGG5rrGvYumVn8/F9fX2nJlOpkxKx+B9HRldo7+q43DRMAv5AsTxRtrWjuwvHdYiFo0TDYZxpQoB+n4/yRDmu6xAMBPbvO+Tv0q6ucw2XZCZ5araQ+4nWOj/Z9MY0TZRhUCgUphSagN8/K5fLLzMMA9u2CQdDD0fD0UH3b34KQKle367Hvcyw4y4sLR3VI5aAds2XrFn4QpDPwOO3wGl/B/FKr5R2z4GRZb6GOcjatz/MC09dhh/o2v0aUp23kBnYiXa9OPbQennTB/2tl/E/7/0Ou9bNZhCoicEn//1+nrvre/Tv76duAZTPhhMv20G8xsEMVFBW9zWef+aSCUuKvahCaWk1CrtgTSjBZRdG0obHDyrKAMe1KJYcqP6QTSjhTFrlxwtxmpPuDJQZ8EKZ4/M/AjmTYsGPxivy4Q85r0YBUKWNONySAFiW1VpfXXNb856dx/cM9MW6+3qXJ2LxP2qtPWeaQm3avuUzhlKYptlTW1X9u0Kx6LlDLGvarcZKc3ISsTiu1piGsdO0rD2udleaWHT39S5aMm+RmsxjbxiKtq5OWjvaWDp/IeEpEp1y+VzZQGqwXpU2JbFMs1sptGmaf+sCUMoXv+T6kXDWUBrqyKIb/ZKezxf0vOfrboFz/97bzaeQGe1JT9Kw4n40lwHQu6eJ3U/MIt27k2IOTv67EQHI9J/KD6/+PjvX1+EC576pjVmrPkH98vuIP9VD9w6veGcx743cviCEy7L4wxnGu6GDsaFCH5tRho1bDNK2t3G4rPYQ6T6vpPlUAuDqkV5rhm1CcWdUYRZ7OFJdLFqgK7HzY/c8sPOw6mLvs8c32sEuP1v/WO5ZEGHwBV+VAqABZRijF+/YFWUVf22oqXv/gdbDi5Pp1EogqpRKZTIZNJyZzmbrDcOgMlG+ye/ztw/txzeTsltDHdP0zmcH/YGCUaoZ2dbVuXrVkuPmm6a5baroQTqXwe/3EwpOPi9MZ1KVA4MDCcd1mN3Q2JyIJ3a/mPvz6vIBHN68kljVxLQi7+YsJNdb9+LM/0lOavpKmWmTlNoyTE2sqoW6BHQPQNvOGNGaOMtf45m9Q3XtXSfGYz/+PM3r67CAky/Zwju+9x4e/MFz5JJe0s/wqF4qn5XqgWLOT7J74jPwBYeKhfaAcijkoa9zFR8dVyp/KCmmv620nHnUXmuBaJBU51qGHPiRyn1UzW8fJRRF6hZvZ8cjZ5CzwyQ7V5LpHysA2vF2MJpsl6GelkZ2PrIADTSsbKVm8cZXqwXQP9BPRdmIjzLoDwzGY/Fuy2xbfLjt8OVNs2b/rDyeeDAUCrHn4IGLtNamaZqpZYuW/PBo/Q2DmSRWd+dwVaDjFi75emdP58n9gwPzkslkOJ3JnJOIx7dN5fk3lFHKMtdk8/kxXcFnWvH+VPIN6WxG2bZNQ03dr8PB0NbR83/Lsv5GBcAAtvxxCc0Pf56mE36AYY5ku7g2PHfnR9izbhkvR4mAobkuTCyEWdm0ndWXb+fPP11G94Ewg+1L8YfvQrsjST6F9Bz+9J+XEAASNQ5r3vxrtPuct5ee5XXSYNwL1/nCXsEPZXgtpudAYoIFYJie193w5Rjaa8TJ+AknAmg3P9bMt6G9GXL9I4tkvIo7MVo3r8YCQj6onPuwV0mnFD1wbYhUejFw1/Yz0FqHXZgYZXBd79pHp1gHwgl69l1DNm+igZpF24jX7XhZ4v9jB4FjcgC5emzdfZ/Pd6CmsvqOXfv2nNbZ1x0bSA4sLI8nHlRKmR3d7We4rqv8Pl8yEYs/MPp9M4kEaD1SDNRxHEKh0DPRUGRv/8DgXFe5qqX90OWJ+PIfDW3vNeRYnDAtUIpsNkN5omzYkZnJZma3dbSdpzX4fX43FAh2Aq5pmvztJwIZQLbPx9fO+yKNK7/oVXspPezeg9DWXNpt+OUKQzpMuo4gEOukac2zuD9dRioLXXtXYOejpLpT+Eox8lx6NulB7/qqF3Vx3IXrSXbCiZd7obRLroPDW7w6/l17oGKu977mB5by1C/OZ/wAa/hKzjerj7JKg7YByPTUMNB2GcXcr8b4ALr2QtduOP3dIx3VMKF9Rx1/+sbr8AE1c20qG1rJ9HsdaeNdXu3BsqoBfApyfVG2PXAOr/nUT8dcx94nYedjXqJRReNIxyukFJ27EmRLEYzq+sNAj5cxaB17KfLpOn92wLOMrGNLBBkfDaiqqHi0trp696H2tsWpVOqsdCbzYzRru3p7T9LapbG+8XkgM7p8l3b1DFJuRzrz0Lx8yYJFt3b3963NF/Lh7Xt2nj9/9tyLw6Hw3ZTyFPKFwnBNwOnuQk9f79UH2g7P19qlob5xe21V9cOMqkSkjsECeHWFboZW9x3YDBv+Chvu8/4+3DyyKvBlGV0ML5++mCsV4xh1OIU05fX7CZXCd537VjBweBbpXm/pc3YQ8oNzhl0VVlATq3KI1Xoe/6GO6jreVGDIW2uY1exe9690dUyM4RuWNxUxjG4WndmBA6Q6fBzaVE7VPIaPVJe3+aovBPuf965Xu955BtqOI2t740zD6r1EK5s5uAFaNkLtYlhyPsxfuxUVhFwG1t95/Jg7PNjuWSrBCGy4G8qbvLTgphMhWlXNulvPwgQqKzSzT3gBKBCIv0TbkpX2xx3yPeSS8PD3PbE7xoUn4yv9xiOx3RWJ8g2u69LR031iJpdZ1dnXfV7RLgY1MLdx9m8nVAfWM9WrsQJYXVH9YFki0YxSuK42n9288euO4zQczfUPplIXb9m1/ePa1ViWpeurax8MBoJ7wduJ+GBrC+3dXcfU5V59+Euhs6HD9zKfz3W8eHcg4qW+jj6sgE3F7C1UltlooL15Flaohlkrvfp8wTgEE/sYKodXGPST7A7Sf8jbyMLOjwuhKQhGIzzx0y/x2xvPnbQ4iiqZ34VshnOu/REaSPWHWXfrlUAEOw8HN3lWkS/kddJffRpat3lTjnRfE/d++f+VNtmABac8xKwVG1h6Hiw+x9sDcd4pMO/UHxFv8KYZfYdmc3jrpcPXsPEu2Pu09/mW3+uM+5/1OuHW+97Hzs0JTGDeGTuZv/a+4eXOR7Vp65hDY/pK1ZbtCFAFGnpbYN3NnhXoO/aNcFSp5PaoWP5gNBLdYlk++pP9szu6u/7r4OGD73JcxxeNRLuqysp/PbRXoC5NIWYyBVBKeaN6Pj/aw39w9dIV/xIKBAYAWjvbF27Z2fxTx3UW+izftIk/hmGQyqRfu2HbC9/r7usLGYZBY23DM/NnN33Ttu1sOpuhrasT13Uxj6Es+Kt3Z6AXucrpqPAFYcdjI+vwRx8AlfN2MOekThRw4Nlq2rcf502gAp4j0B/sxiw15NYdZTz328vIDHgl0YeiBLq0cCdauZQ/f/Umbrn2H7yaB1Ntv+V6C4RmrfwdC1YMUNCw4d6zePYX12EF4KHvw6Z7Pf+C1l4RU9PvXcSG332S9fctowAsWNXDae/45eRP3+zitR/9DTmgt6WS2z/yZbL9i73vFhxbVUkpeOpW2PvUa7njM9d5NR4icOpVvyVUtplCxhO7I3WS4dV843uOmadijtdr0u2z2PvEuaT7YM862PdMaR/B8aXGZ04un2d8/fyGmronayqq2rK5XHTbrh1ntHV1LARUQ03dE6CypmEy+phRh1IGyVSK/sGBsa6ksvI/rVp63BeLxSJaa7btbr7ouRc23N430HdVJBRpoFQTcCiUqMAM+gMrW1oPfe6pjc/+/FDb4SbTMEjEYgdWLln+CaWMfX2D/XT1duNq53/RB+A6vlepZBhobR7T5iH+EGy5D6qbvLnuBGeWsqldmMR3P3QOQu/hBrRWKENjmBCIHuCcv3+Bv/x4FXrQ5I/fuIrTriyw8Mx7iFZ1UsxZlDcqHrrpNex95o088rM1uMC8ZV7Z9HV3TjynfzgOvJ0r//ObfO2SL5DpD3DLP32ScPUgDcu+wd6BkfdpDdHKch74r3/mrhvejw+vOMnFn76JRP3DUzrQzr7mKzx5y+vZ/mwlOx9bxu0f/Snv/P4HiFVvpmffyGfHqiFa8R4eu/nzdLd7C+dPunwDay79gVepJ1hKgz7C/Q9G4bm7vTTsusWjWqJvkFOu+j3rH34b7bsS/Omb/8g1P95Eom6XVyrd8dZZjHeYzpBUOjWh1FY8Gnusoqzsyc7erit8lsYwTBzXpbG2/pF8Ie+OSI2XI2Aa5oysAMMwJszFtdbMnz33m/l8oXbzzm2fLBSL1s79e0/u7Ov9eX117ePRcHhroWjvj4Qi2QOtLVWO4y4dSA4c19retjJbzOO3/FimyfKFSx6pKCt/IpVOH6+UqggHw67t2EZRKcM0zW5g48srAPGa6ynqL7+oRTkvh7Xgujn84d7hENp4W1ON2kJsMrUMRLwR3ReYuNlmuOwADSvXY7KEPDDY24RSMTC8ILzp6+X1n/k3nr7zDtK90HcwxAPf/SD7n72Sp24fwLUN8knFrsfn0V/w7K6VZx/iHd/+Fgc2vZWH7zxl2ja9/KLv8NYvr+DW699MZ0eUn7zrRmqWnkvT8Q8RLmummLUIxk/j9o+dxdY/nkXShrAFb/63Wznpzd8c6fiTnMQf2cy7bvpnvnXlT2htgXW3rKX30C+pX3Efc1c9S7hskFjVfG7+wOnsffQN7N0RQgGrzz7EFf/+MfyRFrQLhh90YWw9w8nueSAM2x+CNRd7AjCU3KSMHCtefwvl8beRGoRtfz6PWz78CyJVj1PW0EGkssAjP6incVWSQPRrGEaaRWcflRNwklGyUB4v2xb0Ba4YftTBUFdlWfndk7aRGQ4uhmHQnxwgEAgQDUfG+AWWLVz8mVgkumPrrubr27s7Fnb39li9A33n+i3fucFAEMtn0dbZRq5QwHVdfJZF0B9AuxrTNGhpbz2ns6f7zmKxuNx27IjWWrtaK9dxjIba+j/UVFZ98GUWgOqfMGfJv9K8w8J6FdQBGJp7VzVtxwpsomzWyHZUQ5ZBtj/EAFBIKzLJwKRbaWeSXiZg+aRLTlPEZz2GzTvIARvvvoy1b/sO8bqR1W9V8+/hmh/fyE+u+Qy9faBs2P5YNS7VniOwdISBiz/1NBd87FoqGnex55kL6QdiA2DnAmPN26FNOIt9nP3+f8If0tzx6bewt81Hd9sb6dn9Orb/tRdcg4Guajq6vRWVTY1F3vLVH3LilV8A+o74kJpO/ikf+qWPX33qRp5/soynH1pO1ZPLaZ4zgGkVyaXitB70Uyhd//kfeJo3fO6TlM9eN7x5il0YXxbcx2DSTxEY7A2NKVmWzYE2RnINSos+SdQ9wjU/+BY/fNfH6UrBo7eeSDx0IrEaF8Ny6Wy1eP1Hnqe88dsYBqMFwHVdXy6fI5fPUbTtsKtdc0zSjpp8L77q8opN/oA/PTA4EAGYN2vO85blOzD+ta7rYrtjty7UYOQL+WDRcQ3bcfwjKf6KbDJJIhYfFoBhxSkUaKxvuLksnnihtav9HS2th95wqKN9YTqbJZPLlNKWjeGEokKxCEXvvmYLOfoGBpoc12lSapSgK8DbFr3uqH0j+ui30rLo3vs69m18LfnBagzjlcwAU2g0seoDLDjl10SqNk7S1hW7Hr2B3U+fhhV0mL36XrR704RX2QVYuNargDsZ/e1r2PiHfyHZXUZFQz8nvOmzhMt2DP/escEphug98AYe+fF1PPCNk0kNxc2BRALO+9gDrHz9HfQeuIuT3taO1iYdO6/iyd9cS1X9YY5/47eJVa+bOIFNlsJg4XKSHRfy/F3v47GbXkdLCxSHEn2AxoVwwSduZ8lZt+A6j9G4Oj1zE0opBjvWsHPdO3n0+29ny/3VpEcVc62NwQlv2cdZ13yT2avvxB8+TDHvWUy6tMX32Dl6Iw//4Hs4rp/yxkfR+j/GOF1jFV5EIZwYW8/Qzsbo2n8Fj//sIzz+/RPpz3nfcei5vuML66hqugTHHqB8Fhznrc0oFAvz27o6PpjJZhfVV9feHovGfq9dtzjW5WFO1oBCbV2dH01n0qu0q5ldP+vrwWBww2ROBj1hvq8iew/u+08XIlXlFXcCfxhtLFimSTgYYnSabqFQwLIsDMMgk8sGTcOoz+Zys7TWpLOZs7L53HFKqcL0j2ryvhAPR5+sqar+4csrAJSq3LY3B0j3mRim5pUmUW9TPb/oPaFJ1ox37vJzcIMfK6CpXlREuxNvsGN7BTwCU3iaswMGe58Jkuo0iNW6LDgtRyDqjhEQp+g57jp2V1M1dwH5zJD9Z2MFUkTK92EX+3j+N5q17/JayWCHyda/hqmY5TD/9Bz+kDupAKR7vdJilh+SnWVEKuaSSyVAm2gUhlEgEO4lVL6fQirN4S0wf+0M+3/JjNIOFDIBlNFIdqAO1/WjtYHCxQomCUYPY+c6CFe4FEtbHQ0JgJ4klLf5njCuq4jVFtGjNmFXeA7XxpVeoVB31HqGQtoLn9qFatK9c3GK0dI1ePcxXNaGYe1Ga6++fslX4roOA6mkP5PNWhWJ8lwoGHRHm+xT+ZMNpRhIDvqy+ZylXZeayursTDfZVErR2d0V1EAsGh2y8cZYDcFAgNE1AIYEQAPZXHaMhZBMp6x0JuNT6hhS3hWE/AEnHosXX34BEATh/xcYcgsEQQRAEAQRAEEQRAAEQRABEARBBEAQBBEAQRBEAARBEAEQBEEEQBAEEQBBEEQABEEQARAEQQRAEAQRAEEQRAAEQRABEARBBEAQBBEAQRBEAARBEAEQBEEEQBAEEQBBEEQABEEQARAEQQRAEAQRAEEQRAAEQRABEARBBEAQBBEAQRBEAARBEAEQBEEEQBAEEQBBEEQABEEQARAEEQBBEEQABEEQARAEQQRAEAQRAEEQRAAEQRABEARBBEAQBBEAQRBEAARBEAEQBEEEQBAEEQBBEEQABEEQARAEQQRAEAQRAEEQRAAEQRABEARBBEAQBBEAQRBEAARBEAEQBEEEQBAEEQBBEEQABEEQARAEQQRAEAQRAEEQRAAEQRABEARBBEAQBBEAQRBEAARBEAEQBEEEQBAEEQBBEAEQBEEEQBAEEQBBEEQABEEQARAEQQRAEAQRAEEQRAAEQRABEARBBEAQBBEAQRBEAARBEAEQBEEEQBAEEQBBEEQABEEQARAEQQRAEAQRAEEQRAAEQRABEARBBEAQBBEAQRBEAARBEAEQBEEEQBAEEQBBEEQABEEQARAEQQRAEAQRAEEQRAAEQTgC/x9YTGX8UKSsFwAAAABJRU5ErkJggg==" vertex="1" parent="vWphqgwW-3ebV2k3nfvZ-32">
          <mxGeometry x="50.01" y="5" width="50" height="50" as="geometry" />
        </mxCell>
        <mxCell id="vWphqgwW-3ebV2k3nfvZ-44" style="edgeStyle=elbowEdgeStyle;shape=connector;rounded=0;orthogonalLoop=1;jettySize=auto;elbow=vertical;html=1;exitX=0;exitY=0.5;exitDx=0;exitDy=0;entryX=0.75;entryY=0;entryDx=0;entryDy=0;dashed=0;labelBackgroundColor=none;strokeColor=#4284F3;strokeWidth=2;align=left;verticalAlign=middle;fontFamily=Helvetica;fontSize=12;fontColor=#000000;startFill=1;endArrow=blockThin;endFill=1;startSize=4;endSize=4;startArrow=blockThin;" edge="1" parent="Lif8JBEafslfNm7ranTe-1" source="vWphqgwW-3ebV2k3nfvZ-18" target="vWphqgwW-3ebV2k3nfvZ-22">
          <mxGeometry relative="1" as="geometry">
            <mxPoint x="486.7052784856204" y="214" as="sourcePoint" />
            <mxPoint x="389.9956862031306" y="355" as="targetPoint" />
            <Array as="points">
              <mxPoint x="490" y="210" />
            </Array>
          </mxGeometry>
        </mxCell>
        <mxCell id="vWphqgwW-3ebV2k3nfvZ-55" value="" style="group" connectable="0" vertex="1" parent="Lif8JBEafslfNm7ranTe-1">
          <mxGeometry x="530" y="500" width="171.22" height="60" as="geometry" />
        </mxCell>
        <mxCell id="vWphqgwW-3ebV2k3nfvZ-50" value="" style="strokeColor=#dddddd;shadow=1;strokeWidth=1;rounded=1;absoluteArcSize=1;arcSize=2;" vertex="1" parent="vWphqgwW-3ebV2k3nfvZ-55">
          <mxGeometry width="171.2199999999999" height="60" as="geometry" />
        </mxCell>
        <mxCell id="vWphqgwW-3ebV2k3nfvZ-49" value="" style="group" connectable="0" vertex="1" parent="vWphqgwW-3ebV2k3nfvZ-55">
          <mxGeometry x="0.003826002891596459" width="160.0004558404558" height="55" as="geometry" />
        </mxCell>
        <mxCell id="vWphqgwW-3ebV2k3nfvZ-53" value="" style="group" connectable="0" vertex="1" parent="vWphqgwW-3ebV2k3nfvZ-49">
          <mxGeometry width="160.0004558404558" height="55" as="geometry" />
        </mxCell>
        <mxCell id="vWphqgwW-3ebV2k3nfvZ-54" value="" style="group" connectable="0" vertex="1" parent="vWphqgwW-3ebV2k3nfvZ-53">
          <mxGeometry width="160.0004558404558" height="55" as="geometry" />
        </mxCell>
        <mxCell id="vWphqgwW-3ebV2k3nfvZ-48" value="" style="verticalLabelPosition=bottom;html=1;verticalAlign=top;align=center;strokeColor=none;fillColor=#00BEF2;shape=mxgraph.azure.mysql_database;fontFamily=Helvetica;fontSize=12;fontColor=#000000;" vertex="1" parent="vWphqgwW-3ebV2k3nfvZ-54">
          <mxGeometry x="12.82458048409434" y="4.583333333333333" width="35.04283487958702" height="45.83333333333333" as="geometry" />
        </mxCell>
        <mxCell id="vWphqgwW-3ebV2k3nfvZ-52" value="BD Operation&lt;div style=&quot;border-color: var(--border-color); padding: 0px; margin: 0px;&quot;&gt;&lt;br style=&quot;border-color: var(--border-color); padding: 0px; margin: 0px;&quot;&gt;&lt;/div&gt;" style="text;html=1;strokeColor=none;fillColor=none;align=center;verticalAlign=middle;whiteSpace=wrap;rounded=0;fontSize=12;fontFamily=Helvetica;fontColor=#000000;" vertex="1" parent="vWphqgwW-3ebV2k3nfvZ-54">
          <mxGeometry x="65.4132917752291" y="13.75" width="84.10280371100883" height="27.5" as="geometry" />
        </mxCell>
        <mxCell id="vWphqgwW-3ebV2k3nfvZ-34" value="" style="group" connectable="0" vertex="1" parent="Lif8JBEafslfNm7ranTe-1">
          <mxGeometry x="52.996174008008666" y="497.5" width="171.21951219512192" height="60" as="geometry" />
        </mxCell>
        <mxCell id="vWphqgwW-3ebV2k3nfvZ-25" value="" style="strokeColor=#dddddd;shadow=1;strokeWidth=1;rounded=1;absoluteArcSize=1;arcSize=2;" vertex="1" parent="vWphqgwW-3ebV2k3nfvZ-34">
          <mxGeometry width="171.21951219512192" height="60" as="geometry" />
        </mxCell>
        <mxCell id="vWphqgwW-3ebV2k3nfvZ-33" value="" style="group" connectable="0" vertex="1" parent="vWphqgwW-3ebV2k3nfvZ-34">
          <mxGeometry x="13.4345576993084" y="12.839999999999975" width="137.59926829268295" height="34.31707317073176" as="geometry" />
        </mxCell>
        <mxCell id="vWphqgwW-3ebV2k3nfvZ-1" value="BigQuery" style="sketch=0;html=1;verticalAlign=top;labelPosition=center;verticalLabelPosition=bottom;align=center;spacingTop=-6;fontSize=11;fontStyle=1;fontColor=#999999;shape=image;aspect=fixed;imageAspect=0;image=data:image/svg+xml,PHN2ZyB4bWxucz0iaHR0cDovL3d3dy53My5vcmcvMjAwMC9zdmciIHhtbG5zOnY9Imh0dHBzOi8vdmVjdGEuaW8vbmFubyIgd2lkdGg9IjIwLjAwMTA0NTIyNzA1MDc4IiBoZWlnaHQ9IjIwLjAwMTA0NTIyNzA1MDc4IiBmaWxsLXJ1bGU9ImV2ZW5vZGQiIHZpZXdCb3g9IjAgMCAyMC4wMDEwNDUyMjcwNTA3OCAyMC4wMDEwNDUyMjcwNTA3OCI+JiN4YTsJPHN0eWxlIHR5cGU9InRleHQvY3NzIj4mI3hhOwkuc3Qwe2ZpbGw6I2FlY2JmYTt9JiN4YTsJLnN0MXtmaWxsOiM2NjlkZjY7fSYjeGE7CS5zdDJ7ZmlsbDojNDI4NWY0O30mI3hhOwk8L3N0eWxlPiYjeGE7CTxwYXRoIGNsYXNzPSJzdDAiIGQ9Ik00LjczIDguODN2Mi42M2E0LjkxIDQuOTEgMCAwIDAgMS43MSAxLjc0VjguODN6Ii8+JiN4YTsJPHBhdGggY2xhc3M9InN0MSIgZD0iTTcuODkgNi40MXY3LjUzQTcuNjIgNy42MiAwIDAgMCA5IDE0YTggOCAwIDAgMCAxIDBWNi40MXoiLz4mI3hhOwk8cGF0aCBjbGFzcz0ic3QwIiBkPSJNMTEuNjQgOS44NnYzLjI5YTUgNSAwIDAgMCAxLjctMS44MlY5Ljg2eiIvPiYjeGE7CTxwYXRoIGNsYXNzPSJzdDIiIGQ9Ik0xNS43NCAxNC4zMmwtMS40MiAxLjQyYS40Mi40MiAwIDAgMCAwIC42bDMuNTQgMy41NGEuNDIuNDIgMCAwIDAgLjU5IDBsMS40My0xLjQzYS40Mi40MiAwIDAgMCAwLS41OWwtMy41NC0zLjU0YS40Mi40MiAwIDAgMC0uNiAwIi8+JiN4YTsJPHBhdGggY2xhc3M9InN0MSIgZD0iTTkgMGE5IDkgMCAxIDAgMCAxOEE5IDkgMCAxIDAgOSAwbTAgMTUuNjlhNi42OCA2LjY4IDAgMCAxIC4wMDctMTMuMzYgNi42OCA2LjY4IDAgMCAxIDQuNzI3IDExLjQwM0E2LjY4IDYuNjggMCAwIDEgOSAxNS42OSIvPiYjeGE7PC9zdmc+;" vertex="1" parent="vWphqgwW-3ebV2k3nfvZ-33">
          <mxGeometry y="5.684341886080802e-14" width="34.3170731707317" height="34.3170731707317" as="geometry" />
        </mxCell>
        <mxCell id="vWphqgwW-3ebV2k3nfvZ-27" value="BD statistics" style="text;html=1;strokeColor=none;fillColor=none;align=center;verticalAlign=middle;whiteSpace=wrap;rounded=0;" vertex="1" parent="vWphqgwW-3ebV2k3nfvZ-33">
          <mxGeometry x="45.07926829268294" width="92.52" height="30" as="geometry" />
        </mxCell>
        <mxCell id="vWphqgwW-3ebV2k3nfvZ-68" value="" style="group" connectable="0" vertex="1" parent="Lif8JBEafslfNm7ranTe-1">
          <mxGeometry x="340" y="480" width="100" height="100" as="geometry" />
        </mxCell>
        <mxCell id="vWphqgwW-3ebV2k3nfvZ-67" value="" style="ellipse;whiteSpace=wrap;html=1;aspect=fixed;fontFamily=Helvetica;fontSize=12;fontColor=#000000;fillColor=none;strokeColor=#F19C99;" vertex="1" parent="vWphqgwW-3ebV2k3nfvZ-68">
          <mxGeometry width="100" height="100" as="geometry" />
        </mxCell>
        <mxCell id="vWphqgwW-3ebV2k3nfvZ-63" value="Cloud&#xa;Scheduler" style="sketch=0;html=1;verticalAlign=top;labelPosition=center;verticalLabelPosition=bottom;align=center;spacingTop=-6;fontSize=11;fontStyle=1;fontColor=#999999;shape=image;aspect=fixed;imageAspect=0;image=data:image/svg+xml,PHN2ZyB4bWxucz0iaHR0cDovL3d3dy53My5vcmcvMjAwMC9zdmciIHhtbG5zOnY9Imh0dHBzOi8vdmVjdGEuaW8vbmFubyIgd2lkdGg9IjM2MC4zMDM3NjY4NjA4MzYzIiBoZWlnaHQ9IjM3OC4wNTExNTgwNzc0MDg4IiB2aWV3Qm94PSItMC4wMDAxNjI0MjExNDM2MTM3NTU3IC0wLjAwMDEwMDAwNTk0OTIwNzExNTkyIDk1LjMzMDI2MTIzMDQ2ODc1IDEwMC4wMjYxMDAxNTg2OTE0Ij4mI3hhOzxzdHlsZSB0eXBlPSJ0ZXh0L2NzcyI+JiN4YTsJLnN0MHtmaWxsOiM0Mjg1ZjQ7fSYjeGE7CS5zdDF7ZmlsbDojYWVjYmZhO30mI3hhOwkuc3Qye2ZpbGw6IzY2OWRmNjt9JiN4YTs8L3N0eWxlPiYjeGE7CTxwYXRoIGNsYXNzPSJzdDAiIGQ9Ik03OS45NzEgNzcuNzE1bC03LjM1OSA3LjQ4OCA4LjYzOSA4LjQ5IDcuMzU5LTcuNDg4em0tNjUuMDk2LjA2MWwtOC42NDEgOC40OTIgNy4zNjEgNy40ODggOC42MzktOC40OXoiLz4mI3hhOwk8cGF0aCBjbGFzcz0ic3QxIiBkPSJNNzkuNTUzLjIyMWE1LjI1IDUuMjUgMCAwIDAtMy42NiA4Ljk4NEw4Ni4zODkgMTkuNThhNS4yNSA1LjI1IDAgMCAwIDguOTQxLTMuNzY1IDUuMjUgNS4yNSAwIDAgMC0xLjU2LTMuNzA0TDgzLjI3NSAxLjczOEE1LjI1IDUuMjUgMCAwIDAgNzkuNTUzLjIyMXpNMTUuOTE2IDBhNS4yNSA1LjI1IDAgMCAwLTMuNzIzIDEuNTE2TDEuNjk5IDExLjg5MWE1LjI1IDUuMjUgMCAwIDAtLjA0MyA3LjQyNCA1LjI1IDUuMjUgMCAwIDAgNy40MjQuMDQzTDE5LjU3NiA4Ljk4MkE1LjI1IDUuMjUgMCAwIDAgMTUuOTE2IDB6Ii8+JiN4YTsJPHBhdGggY2xhc3M9InN0MCIgZD0iTTQ4LjEzOCAyNi4yNGMxMy4zNDcgMCAyNS40MzIgMTEuMTM2IDI1LjMxIDI2LjQ4MSAwIDE1LjExLTEyLjI2NyAyNS42NzMtMjUuMTg5IDI1LjY3My0xMS4xNDkgMC0xOC4zMTctNS4xNzEtMjEuOTYtMTAuNzM4bDIxLjgzOS0xNS4wOTd6Ii8+JiN4YTsJPHBhdGggY2xhc3M9InN0MiIgZD0iTTgxLjI1IDkzLjY5M2w0LjY2NCA0LjU4NmE1LjI1IDUuMjUgMCAxIDAgNy4zNjEtNy40OWwtNC42NjYtNC41ODR6TTYuMjM0IDg2LjI2OEwxLjU3IDkwLjg1MWE1LjI1IDUuMjUgMCAwIDAtLjA2NSA3LjQyNCA1LjI1IDUuMjUgMCAwIDAgNy40MjQuMDY0bDQuNjY2LTQuNTg0ek00Ny4zNzEgNS41NzhDMjEuMzQ5IDUuNTc4LjE0NiAyNi43NzkuMTQ2IDUyLjgwMXMyMS4yMDMgNDcuMjI1IDQ3LjIyNSA0Ny4yMjUgNDcuMjI1LTIxLjIwMyA0Ny4yMjUtNDcuMjI1UzczLjM5MyA1LjU3OCA0Ny4zNzEgNS41Nzh6bTAgMTBhMzcuMTUgMzcuMTUgMCAwIDEgMzcuMjI1IDM3LjIyM2MwIDIwLjYxNy0xNi42MDcgMzcuMjI1LTM3LjIyNSAzNy4yMjVTMTAuMTQ2IDczLjQxOCAxMC4xNDYgNTIuODAxYTM3LjE1IDM3LjE1IDAgMCAxIDM3LjIyNS0zNy4yMjN6Ii8+JiN4YTs8L3N2Zz4=;fontFamily=Helvetica;" vertex="1" parent="vWphqgwW-3ebV2k3nfvZ-68">
          <mxGeometry x="27.77777777777778" y="10" width="44.44444444444444" height="46.66666666666667" as="geometry" />
        </mxCell>
        <mxCell id="vWphqgwW-3ebV2k3nfvZ-69" style="edgeStyle=elbowEdgeStyle;shape=connector;rounded=0;orthogonalLoop=1;jettySize=auto;elbow=vertical;html=1;dashed=0;labelBackgroundColor=none;strokeColor=#4284F3;strokeWidth=2;align=left;verticalAlign=middle;fontFamily=Helvetica;fontSize=12;fontColor=#000000;startFill=1;endArrow=none;endFill=0;startSize=4;endSize=4;entryX=1;entryY=0.5;entryDx=0;entryDy=0;" edge="1" parent="Lif8JBEafslfNm7ranTe-1" source="vWphqgwW-3ebV2k3nfvZ-50" target="vWphqgwW-3ebV2k3nfvZ-67">
          <mxGeometry relative="1" as="geometry">
            <mxPoint x="480" y="530" as="targetPoint" />
          </mxGeometry>
        </mxCell>
        <mxCell id="vWphqgwW-3ebV2k3nfvZ-71" style="edgeStyle=elbowEdgeStyle;shape=connector;rounded=0;orthogonalLoop=1;jettySize=auto;elbow=vertical;html=1;exitX=0;exitY=0.5;exitDx=0;exitDy=0;entryX=1;entryY=0.5;entryDx=0;entryDy=0;dashed=0;labelBackgroundColor=none;strokeColor=#4284F3;strokeWidth=2;align=left;verticalAlign=middle;fontFamily=Helvetica;fontSize=12;fontColor=#000000;startFill=1;endArrow=none;endFill=0;startSize=4;endSize=4;" edge="1" parent="Lif8JBEafslfNm7ranTe-1" source="vWphqgwW-3ebV2k3nfvZ-67" target="vWphqgwW-3ebV2k3nfvZ-25">
          <mxGeometry relative="1" as="geometry" />
        </mxCell>
        <mxCell id="Lif8JBEafslfNm7ranTe-3" value="Multiple&lt;br&gt;Clients&lt;br&gt;API Requests&lt;br&gt;" style="rounded=1;absoluteArcSize=1;arcSize=2;html=1;strokeColor=none;gradientColor=none;shadow=0;dashed=0;fontSize=12;fontColor=#9E9E9E;align=left;verticalAlign=top;spacing=10;spacingTop=-4;fillColor=#F1F8E9;" vertex="1" parent="1">
          <mxGeometry x="40" y="299" width="90" height="230" as="geometry" />
        </mxCell>
        <mxCell id="Lif8JBEafslfNm7ranTe-4" value="Architecture: API Microservices/RabbitMQ" style="fillColor=#4DA1F5;strokeColor=none;shadow=1;gradientColor=none;fontSize=14;align=left;spacingLeft=50;fontColor=#ffffff;html=1;" vertex="1" parent="1">
          <mxGeometry x="180" y="120" width="650" height="40" as="geometry" />
        </mxCell>
        <mxCell id="Lif8JBEafslfNm7ranTe-6" value="" style="strokeColor=#dddddd;fillColor=#ffffff;shadow=1;strokeWidth=1;rounded=1;absoluteArcSize=1;arcSize=2;labelPosition=center;verticalLabelPosition=middle;align=center;verticalAlign=bottom;spacingLeft=0;fontColor=#999999;fontSize=12;whiteSpace=wrap;spacingBottom=2;html=1;" vertex="1" parent="1">
          <mxGeometry x="50" y="359" width="70" height="70" as="geometry" />
        </mxCell>
        <mxCell id="Lif8JBEafslfNm7ranTe-7" value="" style="dashed=0;connectable=0;html=1;fillColor=#757575;strokeColor=none;shape=mxgraph.gcp2.mobile_devices;part=1;" vertex="1" parent="Lif8JBEafslfNm7ranTe-6">
          <mxGeometry x="0.5" width="50" height="36.5" relative="1" as="geometry">
            <mxPoint x="-25" y="16.75" as="offset" />
          </mxGeometry>
        </mxCell>
        <mxCell id="Lif8JBEafslfNm7ranTe-9" value="" style="strokeColor=#dddddd;fillColor=#ffffff;shadow=1;strokeWidth=1;rounded=1;absoluteArcSize=1;arcSize=2;labelPosition=center;verticalLabelPosition=middle;align=center;verticalAlign=bottom;spacingLeft=0;fontColor=#999999;fontSize=12;whiteSpace=wrap;spacingBottom=2;html=1;" vertex="1" parent="1">
          <mxGeometry x="50" y="448.5" width="70" height="70" as="geometry" />
        </mxCell>
        <mxCell id="Lif8JBEafslfNm7ranTe-10" value="" style="dashed=0;connectable=0;html=1;fillColor=#757575;strokeColor=none;shape=mxgraph.gcp2.laptop;part=1;" vertex="1" parent="Lif8JBEafslfNm7ranTe-9">
          <mxGeometry x="0.5" width="50" height="33" relative="1" as="geometry">
            <mxPoint x="-25" y="18.5" as="offset" />
          </mxGeometry>
        </mxCell>
        <mxCell id="vWphqgwW-3ebV2k3nfvZ-15" style="edgeStyle=elbowEdgeStyle;rounded=0;elbow=vertical;html=1;labelBackgroundColor=none;startFill=1;startSize=4;endArrow=blockThin;endFill=1;endSize=4;jettySize=auto;orthogonalLoop=1;strokeColor=#4284F3;strokeWidth=2;fontSize=12;fontColor=#000000;align=left;dashed=0;exitX=1;exitY=0.5;exitDx=0;exitDy=0;entryX=0;entryY=0.5;entryDx=0;entryDy=0;" edge="1" parent="1" source="Lif8JBEafslfNm7ranTe-3" target="vWphqgwW-3ebV2k3nfvZ-13">
          <mxGeometry relative="1" as="geometry">
            <mxPoint x="380" y="429" as="sourcePoint" />
            <mxPoint x="480" y="424" as="targetPoint" />
            <Array as="points" />
          </mxGeometry>
        </mxCell>
        <mxCell id="vWphqgwW-3ebV2k3nfvZ-24" value="" style="group" connectable="0" vertex="1" parent="1">
          <mxGeometry x="160" y="384" width="180" height="60" as="geometry" />
        </mxCell>
        <mxCell id="vWphqgwW-3ebV2k3nfvZ-13" value="" style="strokeColor=#dddddd;shadow=1;strokeWidth=1;rounded=1;absoluteArcSize=1;arcSize=2;movable=1;resizable=1;rotatable=1;deletable=1;editable=1;locked=0;connectable=1;" vertex="1" parent="vWphqgwW-3ebV2k3nfvZ-24">
          <mxGeometry width="180" height="60" as="geometry" />
        </mxCell>
        <mxCell id="vWphqgwW-3ebV2k3nfvZ-7" value="" style="shape=image;verticalLabelPosition=bottom;verticalAlign=top;imageAspect=0;aspect=fixed;image=data:image/png,iVBORw0KGgoAAAANSUhEUgAAAQAAAAEACAMAAABrrFhUAAAABGdBTUEAALGPC/xhBQAAAAFzUkdCAK7OHOkAAADwUExURUxpcfSBIP/37/WIJPaNKfuzS/aPKvSBIPaNKfquQfSBIPSBIPSBIPSBIPSBIPSBIPSBIPaKJfSBIPSBIPSBIPSBIPSBIPqtP/SBIPSBIPqtPvSBIPSBIPquQfqtP/qtP/qtP/qtP/qtP/qtP/qtP/qtP/zGefrInf3mwv////aTP/7z6f3huP////SBIPqtP//////8+PSAHvR+G/qsO//+/PqpNfR7Ff7t3PWILP/z5/aPOPisbPWEJfeVQ/efVf7p1PimYfy6W/eaTPSBH/zHe/u0T/3Wp/7gtv7jwf3Qkfq6hPmzePzAa/rDlf3jzAQjWYwAAAAudFJOUwDu/iUIfBf8A3Wt42RCdA9TNcn3gpYsQ9aL36G9q4nt91i4wc9n3cowcbRdX1wsiuQfAAAD00lEQVR42u3baVPiShTGcQMZyLBvMiDuztz9dodFQGQAcRAGR/3+3+aGMCIom1Ndtzrh/3uJr86Tc06nU+XeHgAAAAAAAAAAAAAAAAAAAAAAAAAAAAAAAAAAAAAAAAAAAAAAAIBVLDOYyu1HMpnMYSkXyycta6eqT6ZKUTHPiMRC5q6Ub+ZzhlhiP53ciaefLhoiLJaKxH0fgRVKRMVq4f2gzwOIR8R6hZSvV0EsKjYxcv4dAyuXFZuFSyG/BrC/Tf3Ogoz4NIFiWGyp5MspSBhiazkfbsJ4VLxDynf1JzPvqV8Yvnsf2G4Bzr0UWrs8ABNxfwVQem/9ouD1FjBDwXQ8ng66t9x44d0BeHwPWvnEoXvsGYeJtLlXfH/9IuPl+hfufEYulfmFALJ579afjyze+I3sLwQgip6tP3goVCh4tv8jSuoXWY++DJkJNfWLr7//+Uf6UzrotXtBMKoogKtA4LcDx+fz47PQDjaAaNstWZOuk4OjT57ZAAVVATzZo7qcOb3wSAR5VfV37PJ4LgAngiMvDIIVU1R/5dEO9GtywYEHmsAsquqAlt2ry1dOP2p/RTL31ZRfbduXwzcBSHls7kYHVETPLg9qbwOQH8yd2AHVe9su95cFcPpF3ymwgvFUTMkINLqBVQHIE103YTJVPIxmlTz/Rqdn2ytGQMoLLU/DZCxiqNr/jdsnp377clRfGoDU8ShIqyu/2mhPnr8j8LA8gRP9rompgrryrx9b9k/Nh/rSKdDtLLRi6x7/N0dlheorDaf8XtmeaQ379Yma66UF9NoCVnzN6qtUn2/3U1c/XTs6nc6to9vt3jja7faPx6fAXPmTPRBojobj8XgweOjfvbTAmV7zv+75d3pNV8sRcJTXurTfupxw//ryZniu0xoMrfsC+LU9V908e2vT8lvN3ujuZQhMnRbAhqXWqFYmA/Dc927nd6adP+v99g/H/f2wuRhMuTWatP6dnC6CuTWo0ctQaKvzb7IHhbv3xGwBVirfXu9AcdOcK785kPWF5Td3I9AnAGVfwNycGtffZyfAePkZ6DrS5/ZXEEo1Ok/T+nv9ulzt3H9fwGYJ3Lv1f7+rralfftYmgJjyAG5am+vXKICS6gCqXecm0Oyvr19eaBNARn0AzkEwkBvoswSjykegHXAGYFMAx9oEYCjvAGcJDmqbAjjzbQdUroZ2q78xgJBvd0D1trfxCJDyQJ/LUEKE1frr73//+fjsw6LZ7/pcBXbqf70AAAAAAAAAAAAAAAAAAAAAAAAAAAAAAAAAAAAAAAAAAAAAAAAAAP+n/wB54xOBUC/dtwAAAABJRU5ErkJggg==" vertex="1" parent="vWphqgwW-3ebV2k3nfvZ-24">
          <mxGeometry x="10" y="5.25" width="49.5" height="49.5" as="geometry" />
        </mxCell>
        <mxCell id="vWphqgwW-3ebV2k3nfvZ-8" value="&lt;b&gt;Cloudflare&lt;/b&gt;" style="text;html=1;strokeColor=none;fillColor=none;align=center;verticalAlign=middle;whiteSpace=wrap;rounded=0;" vertex="1" parent="vWphqgwW-3ebV2k3nfvZ-24">
          <mxGeometry x="90" y="15" width="60" height="30" as="geometry" />
        </mxCell>
        <mxCell id="vWphqgwW-3ebV2k3nfvZ-60" style="edgeStyle=elbowEdgeStyle;shape=connector;rounded=0;orthogonalLoop=1;jettySize=auto;elbow=vertical;html=1;exitX=1;exitY=0.5;exitDx=0;exitDy=0;dashed=0;labelBackgroundColor=none;strokeColor=#4284F3;strokeWidth=2;align=left;verticalAlign=middle;fontFamily=Helvetica;fontSize=12;fontColor=#000000;startFill=1;endArrow=blockThin;endFill=1;startSize=4;endSize=4;" edge="1" parent="1" source="vWphqgwW-3ebV2k3nfvZ-13" target="vWphqgwW-3ebV2k3nfvZ-10">
          <mxGeometry relative="1" as="geometry" />
        </mxCell>
      </root>
    </mxGraphModel>
  </diagram>
</mxfile>
